<?xml version="1.0" encoding="utf-8" standalone="no"?>
<!DOCTYPE svg PUBLIC "-//W3C//DTD SVG 1.1//EN"
  "http://www.w3.org/Graphics/SVG/1.1/DTD/svg11.dtd">
<svg xmlns:xlink="http://www.w3.org/1999/xlink" width="451.30218pt" height="337.397538pt" viewBox="0 0 451.30218 337.397538" xmlns="http://www.w3.org/2000/svg" version="1.1">
 <metadata>
  <rdf:RDF xmlns:dc="http://purl.org/dc/elements/1.1/" xmlns:cc="http://creativecommons.org/ns#" xmlns:rdf="http://www.w3.org/1999/02/22-rdf-syntax-ns#">
   <cc:Work>
    <dc:type rdf:resource="http://purl.org/dc/dcmitype/StillImage"/>
    <dc:date>2026-02-09T22:48:12.535868</dc:date>
    <dc:format>image/svg+xml</dc:format>
    <dc:creator>
     <cc:Agent>
      <dc:title>Matplotlib v3.10.8, https://matplotlib.org/</dc:title>
     </cc:Agent>
    </dc:creator>
   </cc:Work>
  </rdf:RDF>
 </metadata>
 <defs>
  <style type="text/css">*{stroke-linejoin: round; stroke-linecap: butt}</style>
 </defs>
 <g id="figure_1">
  <g id="patch_1">
   <path d="M 0 337.397538 
L 451.30218 337.397538 
L 451.30218 0 
L 0 0 
z
" style="fill: #ffffff"/>
  </g>
  <g id="axes_1">
   <g id="patch_2">
    <path d="M 20.801795 330.197538 
L 444.10218 330.197538 
L 444.10218 7.2 
L 20.801795 7.2 
z
" style="fill: #ffffff"/>
   </g>
   <g id="matplotlib.axis_1">
    <g id="xtick_1">
     <g id="line2d_1">
      <path d="M 28.942187 330.197538 
L 28.942187 7.2 
" clip-path="url(#p56aee56d6c)" style="fill: none; stroke-dasharray: 0.5,0.825; stroke-dashoffset: 0; stroke: #000000; stroke-width: 0.5"/>
     </g>
     <g id="line2d_2">
      <defs>
       <path id="m822879dcb4" d="M 0 0 
L 0 3.5 
" style="stroke: #000000; stroke-width: 0.8"/>
      </defs>
      <g>
       <use xlink:href="#m822879dcb4" x="28.942187" y="199.756225" style="stroke: #000000; stroke-width: 0.8"/>
      </g>
     </g>
    </g>
    <g id="xtick_2">
     <g id="line2d_3">
      <path d="M 130.697088 330.197538 
L 130.697088 7.2 
" clip-path="url(#p56aee56d6c)" style="fill: none; stroke-dasharray: 0.5,0.825; stroke-dashoffset: 0; stroke: #000000; stroke-width: 0.5"/>
     </g>
     <g id="line2d_4">
      <g>
       <use xlink:href="#m822879dcb4" x="130.697088" y="199.756225" style="stroke: #000000; stroke-width: 0.8"/>
      </g>
     </g>
     <g id="text_1">
      <!-- 0.5 -->
      <g transform="translate(122.745525 214.354662) scale(0.1 -0.1)">
       <defs>
        <path id="DejaVuSans-30" d="M 2034 4250 
Q 1547 4250 1301 3770 
Q 1056 3291 1056 2328 
Q 1056 1369 1301 889 
Q 1547 409 2034 409 
Q 2525 409 2770 889 
Q 3016 1369 3016 2328 
Q 3016 3291 2770 3770 
Q 2525 4250 2034 4250 
z
M 2034 4750 
Q 2819 4750 3233 4129 
Q 3647 3509 3647 2328 
Q 3647 1150 3233 529 
Q 2819 -91 2034 -91 
Q 1250 -91 836 529 
Q 422 1150 422 2328 
Q 422 3509 836 4129 
Q 1250 4750 2034 4750 
z
" transform="scale(0.015625)"/>
        <path id="DejaVuSans-2e" d="M 684 794 
L 1344 794 
L 1344 0 
L 684 0 
L 684 794 
z
" transform="scale(0.015625)"/>
        <path id="DejaVuSans-35" d="M 691 4666 
L 3169 4666 
L 3169 4134 
L 1269 4134 
L 1269 2991 
Q 1406 3038 1543 3061 
Q 1681 3084 1819 3084 
Q 2600 3084 3056 2656 
Q 3513 2228 3513 1497 
Q 3513 744 3044 326 
Q 2575 -91 1722 -91 
Q 1428 -91 1123 -41 
Q 819 9 494 109 
L 494 744 
Q 775 591 1075 516 
Q 1375 441 1709 441 
Q 2250 441 2565 725 
Q 2881 1009 2881 1497 
Q 2881 1984 2565 2268 
Q 2250 2553 1709 2553 
Q 1456 2553 1204 2497 
Q 953 2441 691 2322 
L 691 4666 
z
" transform="scale(0.015625)"/>
       </defs>
       <use xlink:href="#DejaVuSans-30"/>
       <use xlink:href="#DejaVuSans-2e" transform="translate(63.623047 0)"/>
       <use xlink:href="#DejaVuSans-35" transform="translate(95.410156 0)"/>
      </g>
     </g>
    </g>
    <g id="xtick_3">
     <g id="line2d_5">
      <path d="M 232.451988 330.197538 
L 232.451988 7.2 
" clip-path="url(#p56aee56d6c)" style="fill: none; stroke-dasharray: 0.5,0.825; stroke-dashoffset: 0; stroke: #000000; stroke-width: 0.5"/>
     </g>
     <g id="line2d_6">
      <g>
       <use xlink:href="#m822879dcb4" x="232.451988" y="199.756225" style="stroke: #000000; stroke-width: 0.8"/>
      </g>
     </g>
     <g id="text_2">
      <!-- 1.0 -->
      <g transform="translate(224.500425 214.354662) scale(0.1 -0.1)">
       <defs>
        <path id="DejaVuSans-31" d="M 794 531 
L 1825 531 
L 1825 4091 
L 703 3866 
L 703 4441 
L 1819 4666 
L 2450 4666 
L 2450 531 
L 3481 531 
L 3481 0 
L 794 0 
L 794 531 
z
" transform="scale(0.015625)"/>
       </defs>
       <use xlink:href="#DejaVuSans-31"/>
       <use xlink:href="#DejaVuSans-2e" transform="translate(63.623047 0)"/>
       <use xlink:href="#DejaVuSans-30" transform="translate(95.410156 0)"/>
      </g>
     </g>
    </g>
    <g id="xtick_4">
     <g id="line2d_7">
      <path d="M 334.206888 330.197538 
L 334.206888 7.2 
" clip-path="url(#p56aee56d6c)" style="fill: none; stroke-dasharray: 0.5,0.825; stroke-dashoffset: 0; stroke: #000000; stroke-width: 0.5"/>
     </g>
     <g id="line2d_8">
      <g>
       <use xlink:href="#m822879dcb4" x="334.206888" y="199.756225" style="stroke: #000000; stroke-width: 0.8"/>
      </g>
     </g>
     <g id="text_3">
      <!-- 1.5 -->
      <g transform="translate(326.255325 214.354662) scale(0.1 -0.1)">
       <use xlink:href="#DejaVuSans-31"/>
       <use xlink:href="#DejaVuSans-2e" transform="translate(63.623047 0)"/>
       <use xlink:href="#DejaVuSans-35" transform="translate(95.410156 0)"/>
      </g>
     </g>
    </g>
    <g id="xtick_5">
     <g id="line2d_9">
      <path d="M 435.961788 330.197538 
L 435.961788 7.2 
" clip-path="url(#p56aee56d6c)" style="fill: none; stroke-dasharray: 0.5,0.825; stroke-dashoffset: 0; stroke: #000000; stroke-width: 0.5"/>
     </g>
     <g id="line2d_10">
      <g>
       <use xlink:href="#m822879dcb4" x="435.961788" y="199.756225" style="stroke: #000000; stroke-width: 0.8"/>
      </g>
     </g>
     <g id="text_4">
      <!-- 2.0 -->
      <g transform="translate(428.010226 214.354662) scale(0.1 -0.1)">
       <defs>
        <path id="DejaVuSans-32" d="M 1228 531 
L 3431 531 
L 3431 0 
L 469 0 
L 469 531 
Q 828 903 1448 1529 
Q 2069 2156 2228 2338 
Q 2531 2678 2651 2914 
Q 2772 3150 2772 3378 
Q 2772 3750 2511 3984 
Q 2250 4219 1831 4219 
Q 1534 4219 1204 4116 
Q 875 4013 500 3803 
L 500 4441 
Q 881 4594 1212 4672 
Q 1544 4750 1819 4750 
Q 2544 4750 2975 4387 
Q 3406 4025 3406 3419 
Q 3406 3131 3298 2873 
Q 3191 2616 2906 2266 
Q 2828 2175 2409 1742 
Q 1991 1309 1228 531 
z
" transform="scale(0.015625)"/>
       </defs>
       <use xlink:href="#DejaVuSans-32"/>
       <use xlink:href="#DejaVuSans-2e" transform="translate(63.623047 0)"/>
       <use xlink:href="#DejaVuSans-30" transform="translate(95.410156 0)"/>
      </g>
     </g>
    </g>
    <g id="xtick_6">
     <g id="line2d_11">
      <defs>
       <path id="ma57dfd403e" d="M 0 0 
L 0 2 
" style="stroke: #000000; stroke-width: 0.6"/>
      </defs>
      <g>
       <use xlink:href="#ma57dfd403e" x="49.293168" y="199.756225" style="stroke: #000000; stroke-width: 0.6"/>
      </g>
     </g>
    </g>
    <g id="xtick_7">
     <g id="line2d_12">
      <g>
       <use xlink:href="#ma57dfd403e" x="69.644148" y="199.756225" style="stroke: #000000; stroke-width: 0.6"/>
      </g>
     </g>
    </g>
    <g id="xtick_8">
     <g id="line2d_13">
      <g>
       <use xlink:href="#ma57dfd403e" x="89.995128" y="199.756225" style="stroke: #000000; stroke-width: 0.6"/>
      </g>
     </g>
    </g>
    <g id="xtick_9">
     <g id="line2d_14">
      <g>
       <use xlink:href="#ma57dfd403e" x="110.346108" y="199.756225" style="stroke: #000000; stroke-width: 0.6"/>
      </g>
     </g>
    </g>
    <g id="xtick_10">
     <g id="line2d_15">
      <g>
       <use xlink:href="#ma57dfd403e" x="151.048068" y="199.756225" style="stroke: #000000; stroke-width: 0.6"/>
      </g>
     </g>
    </g>
    <g id="xtick_11">
     <g id="line2d_16">
      <g>
       <use xlink:href="#ma57dfd403e" x="171.399048" y="199.756225" style="stroke: #000000; stroke-width: 0.6"/>
      </g>
     </g>
    </g>
    <g id="xtick_12">
     <g id="line2d_17">
      <g>
       <use xlink:href="#ma57dfd403e" x="191.750028" y="199.756225" style="stroke: #000000; stroke-width: 0.6"/>
      </g>
     </g>
    </g>
    <g id="xtick_13">
     <g id="line2d_18">
      <g>
       <use xlink:href="#ma57dfd403e" x="212.101008" y="199.756225" style="stroke: #000000; stroke-width: 0.6"/>
      </g>
     </g>
    </g>
    <g id="xtick_14">
     <g id="line2d_19">
      <g>
       <use xlink:href="#ma57dfd403e" x="252.802968" y="199.756225" style="stroke: #000000; stroke-width: 0.6"/>
      </g>
     </g>
    </g>
    <g id="xtick_15">
     <g id="line2d_20">
      <g>
       <use xlink:href="#ma57dfd403e" x="273.153948" y="199.756225" style="stroke: #000000; stroke-width: 0.6"/>
      </g>
     </g>
    </g>
    <g id="xtick_16">
     <g id="line2d_21">
      <g>
       <use xlink:href="#ma57dfd403e" x="293.504928" y="199.756225" style="stroke: #000000; stroke-width: 0.6"/>
      </g>
     </g>
    </g>
    <g id="xtick_17">
     <g id="line2d_22">
      <g>
       <use xlink:href="#ma57dfd403e" x="313.855908" y="199.756225" style="stroke: #000000; stroke-width: 0.6"/>
      </g>
     </g>
    </g>
    <g id="xtick_18">
     <g id="line2d_23">
      <g>
       <use xlink:href="#ma57dfd403e" x="354.557868" y="199.756225" style="stroke: #000000; stroke-width: 0.6"/>
      </g>
     </g>
    </g>
    <g id="xtick_19">
     <g id="line2d_24">
      <g>
       <use xlink:href="#ma57dfd403e" x="374.908848" y="199.756225" style="stroke: #000000; stroke-width: 0.6"/>
      </g>
     </g>
    </g>
    <g id="xtick_20">
     <g id="line2d_25">
      <g>
       <use xlink:href="#ma57dfd403e" x="395.259828" y="199.756225" style="stroke: #000000; stroke-width: 0.6"/>
      </g>
     </g>
    </g>
    <g id="xtick_21">
     <g id="line2d_26">
      <g>
       <use xlink:href="#ma57dfd403e" x="415.610808" y="199.756225" style="stroke: #000000; stroke-width: 0.6"/>
      </g>
     </g>
    </g>
   </g>
   <g id="matplotlib.axis_2">
    <g id="ytick_1">
     <g id="line2d_27">
      <path d="M 20.801795 323.986047 
L 444.10218 323.986047 
" clip-path="url(#p56aee56d6c)" style="fill: none; stroke-dasharray: 0.5,0.825; stroke-dashoffset: 0; stroke: #000000; stroke-width: 0.5"/>
     </g>
     <g id="line2d_28">
      <defs>
       <path id="m32da3fe3be" d="M 0 0 
L -3.5 0 
" style="stroke: #000000; stroke-width: 0.8"/>
      </defs>
      <g>
       <use xlink:href="#m32da3fe3be" x="28.942187" y="323.986047" style="stroke: #000000; stroke-width: 0.8"/>
      </g>
     </g>
     <g id="text_5">
      <!-- −2 -->
      <g transform="translate(7.2 327.785266) scale(0.1 -0.1)">
       <defs>
        <path id="DejaVuSans-2212" d="M 678 2272 
L 4684 2272 
L 4684 1741 
L 678 1741 
L 678 2272 
z
" transform="scale(0.015625)"/>
       </defs>
       <use xlink:href="#DejaVuSans-2212"/>
       <use xlink:href="#DejaVuSans-32" transform="translate(83.789062 0)"/>
      </g>
     </g>
    </g>
    <g id="ytick_2">
     <g id="line2d_29">
      <path d="M 20.801795 261.871136 
L 444.10218 261.871136 
" clip-path="url(#p56aee56d6c)" style="fill: none; stroke-dasharray: 0.5,0.825; stroke-dashoffset: 0; stroke: #000000; stroke-width: 0.5"/>
     </g>
     <g id="line2d_30">
      <g>
       <use xlink:href="#m32da3fe3be" x="28.942187" y="261.871136" style="stroke: #000000; stroke-width: 0.8"/>
      </g>
     </g>
     <g id="text_6">
      <!-- −1 -->
      <g transform="translate(7.2 265.670355) scale(0.1 -0.1)">
       <use xlink:href="#DejaVuSans-2212"/>
       <use xlink:href="#DejaVuSans-31" transform="translate(83.789062 0)"/>
      </g>
     </g>
    </g>
    <g id="ytick_3">
     <g id="line2d_31">
      <path d="M 20.801795 199.756225 
L 444.10218 199.756225 
" clip-path="url(#p56aee56d6c)" style="fill: none; stroke-dasharray: 0.5,0.825; stroke-dashoffset: 0; stroke: #000000; stroke-width: 0.5"/>
     </g>
     <g id="line2d_32">
      <g>
       <use xlink:href="#m32da3fe3be" x="28.942187" y="199.756225" style="stroke: #000000; stroke-width: 0.8"/>
      </g>
     </g>
    </g>
    <g id="ytick_4">
     <g id="line2d_33">
      <path d="M 20.801795 137.641314 
L 444.10218 137.641314 
" clip-path="url(#p56aee56d6c)" style="fill: none; stroke-dasharray: 0.5,0.825; stroke-dashoffset: 0; stroke: #000000; stroke-width: 0.5"/>
     </g>
     <g id="line2d_34">
      <g>
       <use xlink:href="#m32da3fe3be" x="28.942187" y="137.641314" style="stroke: #000000; stroke-width: 0.8"/>
      </g>
     </g>
     <g id="text_7">
      <!-- 1 -->
      <g transform="translate(15.579687 141.440532) scale(0.1 -0.1)">
       <use xlink:href="#DejaVuSans-31"/>
      </g>
     </g>
    </g>
    <g id="ytick_5">
     <g id="line2d_35">
      <path d="M 20.801795 75.526402 
L 444.10218 75.526402 
" clip-path="url(#p56aee56d6c)" style="fill: none; stroke-dasharray: 0.5,0.825; stroke-dashoffset: 0; stroke: #000000; stroke-width: 0.5"/>
     </g>
     <g id="line2d_36">
      <g>
       <use xlink:href="#m32da3fe3be" x="28.942187" y="75.526402" style="stroke: #000000; stroke-width: 0.8"/>
      </g>
     </g>
     <g id="text_8">
      <!-- 2 -->
      <g transform="translate(15.579687 79.325621) scale(0.1 -0.1)">
       <use xlink:href="#DejaVuSans-32"/>
      </g>
     </g>
    </g>
    <g id="ytick_6">
     <g id="line2d_37">
      <path d="M 20.801795 13.411491 
L 444.10218 13.411491 
" clip-path="url(#p56aee56d6c)" style="fill: none; stroke-dasharray: 0.5,0.825; stroke-dashoffset: 0; stroke: #000000; stroke-width: 0.5"/>
     </g>
     <g id="line2d_38">
      <g>
       <use xlink:href="#m32da3fe3be" x="28.942187" y="13.411491" style="stroke: #000000; stroke-width: 0.8"/>
      </g>
     </g>
     <g id="text_9">
      <!-- 3 -->
      <g transform="translate(15.579687 17.21071) scale(0.1 -0.1)">
       <defs>
        <path id="DejaVuSans-33" d="M 2597 2516 
Q 3050 2419 3304 2112 
Q 3559 1806 3559 1356 
Q 3559 666 3084 287 
Q 2609 -91 1734 -91 
Q 1441 -91 1130 -33 
Q 819 25 488 141 
L 488 750 
Q 750 597 1062 519 
Q 1375 441 1716 441 
Q 2309 441 2620 675 
Q 2931 909 2931 1356 
Q 2931 1769 2642 2001 
Q 2353 2234 1838 2234 
L 1294 2234 
L 1294 2753 
L 1863 2753 
Q 2328 2753 2575 2939 
Q 2822 3125 2822 3475 
Q 2822 3834 2567 4026 
Q 2313 4219 1838 4219 
Q 1578 4219 1281 4162 
Q 984 4106 628 3988 
L 628 4550 
Q 988 4650 1302 4700 
Q 1616 4750 1894 4750 
Q 2613 4750 3031 4423 
Q 3450 4097 3450 3541 
Q 3450 3153 3228 2886 
Q 3006 2619 2597 2516 
z
" transform="scale(0.015625)"/>
       </defs>
       <use xlink:href="#DejaVuSans-33"/>
      </g>
     </g>
    </g>
    <g id="ytick_7">
     <g id="line2d_39">
      <defs>
       <path id="meda5c029d3" d="M 0 0 
L -2 0 
" style="stroke: #000000; stroke-width: 0.6"/>
      </defs>
      <g>
       <use xlink:href="#meda5c029d3" x="28.942187" y="311.563065" style="stroke: #000000; stroke-width: 0.6"/>
      </g>
     </g>
    </g>
    <g id="ytick_8">
     <g id="line2d_40">
      <g>
       <use xlink:href="#meda5c029d3" x="28.942187" y="299.140083" style="stroke: #000000; stroke-width: 0.6"/>
      </g>
     </g>
    </g>
    <g id="ytick_9">
     <g id="line2d_41">
      <g>
       <use xlink:href="#meda5c029d3" x="28.942187" y="286.717101" style="stroke: #000000; stroke-width: 0.6"/>
      </g>
     </g>
    </g>
    <g id="ytick_10">
     <g id="line2d_42">
      <g>
       <use xlink:href="#meda5c029d3" x="28.942187" y="274.294118" style="stroke: #000000; stroke-width: 0.6"/>
      </g>
     </g>
    </g>
    <g id="ytick_11">
     <g id="line2d_43">
      <g>
       <use xlink:href="#meda5c029d3" x="28.942187" y="249.448154" style="stroke: #000000; stroke-width: 0.6"/>
      </g>
     </g>
    </g>
    <g id="ytick_12">
     <g id="line2d_44">
      <g>
       <use xlink:href="#meda5c029d3" x="28.942187" y="237.025172" style="stroke: #000000; stroke-width: 0.6"/>
      </g>
     </g>
    </g>
    <g id="ytick_13">
     <g id="line2d_45">
      <g>
       <use xlink:href="#meda5c029d3" x="28.942187" y="224.602189" style="stroke: #000000; stroke-width: 0.6"/>
      </g>
     </g>
    </g>
    <g id="ytick_14">
     <g id="line2d_46">
      <g>
       <use xlink:href="#meda5c029d3" x="28.942187" y="212.179207" style="stroke: #000000; stroke-width: 0.6"/>
      </g>
     </g>
    </g>
    <g id="ytick_15">
     <g id="line2d_47">
      <g>
       <use xlink:href="#meda5c029d3" x="28.942187" y="187.333243" style="stroke: #000000; stroke-width: 0.6"/>
      </g>
     </g>
    </g>
    <g id="ytick_16">
     <g id="line2d_48">
      <g>
       <use xlink:href="#meda5c029d3" x="28.942187" y="174.91026" style="stroke: #000000; stroke-width: 0.6"/>
      </g>
     </g>
    </g>
    <g id="ytick_17">
     <g id="line2d_49">
      <g>
       <use xlink:href="#meda5c029d3" x="28.942187" y="162.487278" style="stroke: #000000; stroke-width: 0.6"/>
      </g>
     </g>
    </g>
    <g id="ytick_18">
     <g id="line2d_50">
      <g>
       <use xlink:href="#meda5c029d3" x="28.942187" y="150.064296" style="stroke: #000000; stroke-width: 0.6"/>
      </g>
     </g>
    </g>
    <g id="ytick_19">
     <g id="line2d_51">
      <g>
       <use xlink:href="#meda5c029d3" x="28.942187" y="125.218331" style="stroke: #000000; stroke-width: 0.6"/>
      </g>
     </g>
    </g>
    <g id="ytick_20">
     <g id="line2d_52">
      <g>
       <use xlink:href="#meda5c029d3" x="28.942187" y="112.795349" style="stroke: #000000; stroke-width: 0.6"/>
      </g>
     </g>
    </g>
    <g id="ytick_21">
     <g id="line2d_53">
      <g>
       <use xlink:href="#meda5c029d3" x="28.942187" y="100.372367" style="stroke: #000000; stroke-width: 0.6"/>
      </g>
     </g>
    </g>
    <g id="ytick_22">
     <g id="line2d_54">
      <g>
       <use xlink:href="#meda5c029d3" x="28.942187" y="87.949385" style="stroke: #000000; stroke-width: 0.6"/>
      </g>
     </g>
    </g>
    <g id="ytick_23">
     <g id="line2d_55">
      <g>
       <use xlink:href="#meda5c029d3" x="28.942187" y="63.10342" style="stroke: #000000; stroke-width: 0.6"/>
      </g>
     </g>
    </g>
    <g id="ytick_24">
     <g id="line2d_56">
      <g>
       <use xlink:href="#meda5c029d3" x="28.942187" y="50.680438" style="stroke: #000000; stroke-width: 0.6"/>
      </g>
     </g>
    </g>
    <g id="ytick_25">
     <g id="line2d_57">
      <g>
       <use xlink:href="#meda5c029d3" x="28.942187" y="38.257456" style="stroke: #000000; stroke-width: 0.6"/>
      </g>
     </g>
    </g>
    <g id="ytick_26">
     <g id="line2d_58">
      <g>
       <use xlink:href="#meda5c029d3" x="28.942187" y="25.834473" style="stroke: #000000; stroke-width: 0.6"/>
      </g>
     </g>
    </g>
   </g>
   <g id="line2d_59">
    <path d="M 28.942187 199.756225 
L 34.032884 171.096502 
L 36.611559 157.759902 
L 38.87917 147.159353 
L 40.801029 139.206146 
L 42.383917 133.470121 
L 43.966805 128.539176 
L 45.235396 125.204163 
L 46.409885 122.626125 
L 47.647585 120.453826 
L 48.780478 118.963518 
L 49.724555 118.088208 
L 50.446616 117.643977 
L 51.168677 117.394383 
L 51.83609 117.33577 
L 52.503504 117.441076 
L 53.170917 117.708494 
L 54.06268 118.314886 
L 54.960075 119.206648 
L 55.995613 120.576257 
L 57.083085 122.392275 
L 58.533047 125.382432 
L 60.024718 129.085722 
L 61.738527 134.041394 
L 63.463055 139.676851 
L 65.917499 148.5742 
L 69.293773 161.838713 
L 74.532169 182.444532 
L 76.882981 190.797716 
L 78.723809 196.637889 
L 80.502141 201.547688 
L 82.031205 205.10538 
L 83.449686 207.798337 
L 84.783506 209.757702 
L 85.720377 210.785512 
L 86.657248 211.516156 
L 87.474295 211.905503 
L 88.291342 212.06032 
L 89.111977 211.977268 
L 89.939789 211.649758 
L 90.767601 211.07695 
L 91.641991 210.206119 
L 92.564863 208.992868 
L 93.770511 206.959121 
L 95.103956 204.131934 
L 96.556355 200.388439 
L 98.187187 195.406682 
L 99.805763 189.712336 
L 101.674958 182.309226 
L 103.794326 173.011124 
L 106.72678 158.97302 
L 116.652189 110.04165 
L 119.047495 99.991763 
L 120.925333 93.077642 
L 122.641276 87.631699 
L 124.128622 83.658851 
L 125.244132 81.167328 
L 126.341785 79.143523 
L 127.499447 77.484361 
L 128.363138 76.571892 
L 129.334845 75.883175 
L 130.144639 75.585123 
L 130.954432 75.539146 
L 131.739574 75.73542 
L 132.524716 76.168129 
L 133.309857 76.835743 
L 134.278802 77.979895 
L 135.230567 79.442561 
L 136.431641 81.755566 
L 137.632716 84.571883 
L 138.946825 88.202244 
L 140.417068 92.900595 
L 142.203518 99.432428 
L 144.386187 108.472602 
L 146.799407 119.543976 
L 149.704917 133.868156 
L 156.602416 168.363499 
L 159.085902 179.622468 
L 161.14263 188.022912 
L 163.105491 195.070804 
L 164.6695 199.911436 
L 166.065341 203.59682 
L 167.509033 206.739664 
L 168.699886 208.798758 
L 169.767915 210.224189 
L 170.628988 211.078977 
L 171.610161 211.730124 
L 172.591335 212.036737 
L 173.519408 212.010866 
L 174.320761 211.743588 
L 175.131066 211.245453 
L 175.891721 210.572681 
L 177.006387 209.236258 
L 177.933397 207.816969 
L 179.04243 205.766808 
L 180.521141 202.469946 
L 182.173626 198.087087 
L 183.778257 193.20677 
L 185.921564 185.889052 
L 188.531823 176.066614 
L 197.832018 140.017948 
L 199.907146 133.271119 
L 201.723842 128.151602 
L 203.251734 124.515396 
L 204.64794 121.789464 
L 205.686828 120.15907 
L 206.725717 118.886342 
L 207.704891 118.026635 
L 208.397335 117.623235 
L 209.129443 117.384675 
L 209.86155 117.342006 
L 210.776684 117.567364 
L 211.663416 118.08356 
L 212.588813 118.936163 
L 213.475584 120.053782 
L 214.584046 121.861972 
L 215.692509 124.1212 
L 216.924705 127.150518 
L 218.352332 131.31953 
L 219.77996 136.162489 
L 221.390345 142.380001 
L 223.284628 150.620481 
L 225.632109 162.021194 
L 228.069887 174.946502 
L 231.948909 196.862509 
L 237.048285 225.736731 
L 240.057953 241.439493 
L 242.215036 251.58396 
L 243.99583 259.074187 
L 245.538738 264.823897 
L 247.042507 269.704328 
L 248.630263 274.029424 
L 250.026353 277.095706 
L 251.086473 278.949444 
L 252.146593 280.386451 
L 253.022169 281.256597 
L 253.925225 281.853311 
L 254.687994 282.120062 
L 255.621719 282.152939 
L 256.555444 281.866411 
L 257.465699 281.285013 
L 258.551024 280.2115 
L 259.63635 278.737686 
L 260.961837 276.419395 
L 262.222853 273.71568 
L 263.541011 270.40931 
L 265.064757 266.034674 
L 266.754127 260.582223 
L 269.089372 252.212544 
L 272.267931 239.820309 
L 277.976912 217.310595 
L 280.359128 208.82782 
L 282.269552 202.767778 
L 283.994232 198.009714 
L 285.538107 194.413188 
L 286.821109 191.949775 
L 288.075828 190.034985 
L 289.016868 188.935098 
L 290.015247 188.094208 
L 291.005202 187.599983 
L 291.920966 187.449305 
L 292.83673 187.596656 
L 293.735001 188.032481 
L 294.52569 188.655073 
L 295.555423 189.799976 
L 296.619785 191.376702 
L 297.781291 193.545359 
L 298.997868 196.304529 
L 300.501817 200.376575 
L 302.191537 205.769766 
L 303.754445 211.463008 
L 305.701513 219.389239 
L 308.041884 229.924505 
L 310.830201 243.495557 
L 319.415144 286.101409 
L 321.767734 296.347515 
L 323.845282 304.364635 
L 325.509887 309.949754 
L 326.949887 314.104537 
L 328.389888 317.579406 
L 329.669549 320.063283 
L 330.819908 321.790664 
L 331.824746 322.897054 
L 332.628616 323.507291 
L 333.432486 323.870682 
L 334.035388 323.980388 
L 334.873405 323.90058 
L 335.711423 323.550934 
L 336.516671 322.962041 
L 337.451049 321.970992 
L 338.424396 320.592265 
L 339.592412 318.481844 
L 340.774703 315.855175 
L 341.979587 312.692359 
L 343.315037 308.645403 
L 344.890346 303.194804 
L 346.923391 295.198746 
L 349.336414 284.546021 
L 352.129318 271.08421 
L 361.845396 223.177272 
L 364.214466 213.197105 
L 366.230468 205.741518 
L 367.975251 200.190986 
L 369.547826 195.981755 
L 370.862091 193.080113 
L 372.047567 190.965099 
L 373.016449 189.599752 
L 373.985331 188.566452 
L 374.954213 187.868133 
L 375.898724 187.510794 
L 376.688207 187.456534 
L 377.47769 187.623367 
L 378.267174 188.009018 
L 379.056657 188.610369 
L 379.946392 189.541652 
L 381.132705 191.189633 
L 382.360414 193.364374 
L 383.734038 196.331088 
L 385.061519 199.694402 
L 386.841979 204.892405 
L 388.844008 211.53857 
L 391.259699 220.423168 
L 395.159865 235.864703 
L 399.305802 252.142752 
L 401.804085 261.070471 
L 403.722778 267.158804 
L 405.537934 272.136473 
L 406.83589 275.157062 
L 408.121562 277.659955 
L 409.439049 279.682904 
L 410.498748 280.890094 
L 411.535894 281.694252 
L 412.313754 282.045748 
L 413.183469 282.178309 
L 413.997373 282.049916 
L 414.811277 281.675103 
L 415.625182 281.052553 
L 416.414401 280.211967 
L 417.293016 279.002467 
L 418.467292 276.93932 
L 419.649935 274.35308 
L 420.857197 271.200037 
L 422.245389 266.957323 
L 423.740466 261.687761 
L 425.293705 255.49905 
L 427.359011 246.261014 
L 429.762129 234.293768 
L 432.744059 218.109182 
L 435.961788 199.756225 
L 435.961788 199.756225 
" clip-path="url(#p56aee56d6c)" style="fill: none; stroke: #000000; stroke-width: 3; stroke-linecap: square"/>
   </g>
   <g id="patch_3">
    <path d="M 28.942187 330.197538 
L 28.942187 7.2 
" style="fill: none; stroke: #000000; stroke-width: 0.8; stroke-linejoin: miter; stroke-linecap: square"/>
   </g>
   <g id="patch_4">
    <path d="M 20.801795 199.756225 
L 444.10218 199.756225 
" style="fill: none; stroke: #000000; stroke-width: 0.8; stroke-linejoin: miter; stroke-linecap: square"/>
   </g>
  </g>
 </g>
 <defs>
  <clipPath id="p56aee56d6c">
   <rect x="20.801795" y="7.2" width="423.300385" height="322.997538"/>
  </clipPath>
 </defs>
</svg>
