<?xml version="1.0" encoding="utf-8" standalone="no"?>
<!DOCTYPE svg PUBLIC "-//W3C//DTD SVG 1.1//EN"
  "http://www.w3.org/Graphics/SVG/1.1/DTD/svg11.dtd">
<svg xmlns:xlink="http://www.w3.org/1999/xlink" width="453.6pt" height="320.569298pt" viewBox="0 0 453.6 320.569298" xmlns="http://www.w3.org/2000/svg" version="1.1">
 <metadata>
  <rdf:RDF xmlns:dc="http://purl.org/dc/elements/1.1/" xmlns:cc="http://creativecommons.org/ns#" xmlns:rdf="http://www.w3.org/1999/02/22-rdf-syntax-ns#">
   <cc:Work>
    <dc:type rdf:resource="http://purl.org/dc/dcmitype/StillImage"/>
    <dc:date>2026-09-29T17:08:54.368030</dc:date>
    <dc:format>image/svg+xml</dc:format>
    <dc:creator>
     <cc:Agent>
      <dc:title>Matplotlib v3.10.5, https://matplotlib.org/</dc:title>
     </cc:Agent>
    </dc:creator>
   </cc:Work>
  </rdf:RDF>
 </metadata>
 <defs>
  <style type="text/css">*{stroke-linejoin: round; stroke-linecap: butt}</style>
 </defs>
 <g id="figure_1">
  <g id="patch_1">
   <path d="M 0 320.569298 
L 453.6 320.569298 
L 453.6 0 
L 0 0 
z
" style="fill: #ffffff"/>
  </g>
  <g id="axes_1">
   <g id="patch_2">
    <path d="M 7.2 313.369298 
L 446.4 313.369298 
L 446.4 7.2 
L 7.2 7.2 
z
" style="fill: #ffffff"/>
   </g>
   <g id="PathCollection_1">
    <path d="M 226.8 15.826484 
C 227.526289 15.826484 228.222928 15.537926 228.736492 15.024363 
C 229.250055 14.510799 229.538613 13.81416 229.538613 13.087871 
C 229.538613 12.361583 229.250055 11.664943 228.736492 11.151379 
C 228.222928 10.637816 227.526289 10.349258 226.8 10.349258 
C 226.073711 10.349258 225.377072 10.637816 224.863508 11.151379 
C 224.349945 11.664943 224.061387 12.361583 224.061387 13.087871 
C 224.061387 13.81416 224.349945 14.510799 224.863508 15.024363 
C 225.377072 15.537926 226.073711 15.826484 226.8 15.826484 
z
" clip-path="url(#p8e5e3dff7b)"/>
   </g>
   <g id="matplotlib.axis_1"/>
   <g id="matplotlib.axis_2"/>
   <g id="line2d_1">
    <path d="M 15.646154 307.481427 
L 27.896387 298.689786 
L 39.581746 290.047491 
L 51.715692 280.782889 
L 62.484693 272.287683 
L 73.011474 263.709997 
L 83.270155 255.063408 
L 93.212737 246.383065 
L 102.526712 237.953348 
L 110.906411 230.094888 
L 119.446397 221.787908 
L 127.461265 213.685477 
L 135.126925 205.624151 
L 143.191215 196.77071 
L 150.825284 187.986839 
L 157.342646 180.131764 
L 163.155329 172.808792 
L 168.994834 165.106806 
L 175.110868 156.610245 
L 181.039705 147.87891 
L 184.841297 141.979342 
L 189.692768 134.04734 
L 193.43858 127.560979 
L 196.697485 121.614621 
L 200.602018 114.048488 
L 203.6266 107.79055 
L 207.123464 100.02154 
L 209.970908 93.168146 
L 213.273054 84.446098 
L 215.765344 77.129135 
L 217.446179 71.715336 
L 220.142336 61.889154 
L 220.80468 59.182483 
L 222.845562 49.730301 
L 224.391231 40.759019 
L 225.879349 28.582755 
L 227.124008 20.562279 
L 228.17576 32.968611 
L 229.926311 45.200248 
L 231.126483 51.609468 
L 233.1969 60.840366 
L 236.003754 71.20913 
L 238.304303 78.566699 
L 240.865862 85.936979 
L 243.943053 93.950886 
L 247.273779 101.849924 
L 250.476924 108.859531 
L 254.009769 116.060385 
L 258.285964 124.176394 
L 262.490521 131.634423 
L 266.423103 138.221437 
L 271.351053 146.02985 
L 276.9047 154.328193 
L 282.416438 162.120298 
L 287.30333 168.711663 
L 292.478237 175.407355 
L 299.373036 183.930929 
L 306.257325 192.046233 
L 313.877553 200.629025 
L 321.012172 208.330393 
L 329.565968 217.188722 
L 337.853654 225.426131 
L 346.106103 233.328344 
L 355.446366 241.949221 
L 365.347488 250.752516 
L 375.56882 259.516379 
L 386.341926 268.433248 
L 396.406935 276.495722 
L 408.055604 285.533614 
L 420.130967 294.600957 
L 432.499826 303.599622 
L 437.953846 307.481427 
L 437.953846 307.481427 
" clip-path="url(#p8e5e3dff7b)" style="fill: none; stroke: #000000; stroke-linecap: square"/>
   </g>
  </g>
 </g>
 <defs>
  <clipPath id="p8e5e3dff7b">
   <rect x="7.2" y="7.2" width="439.2" height="306.169298"/>
  </clipPath>
 </defs>
</svg>
