<?xml version="1.0" encoding="utf-8" standalone="no"?>
<!DOCTYPE svg PUBLIC "-//W3C//DTD SVG 1.1//EN"
  "http://www.w3.org/Graphics/SVG/1.1/DTD/svg11.dtd">
<svg xmlns:xlink="http://www.w3.org/1999/xlink" width="452.820716pt" height="230.016593pt" viewBox="0 0 452.820716 230.016593" xmlns="http://www.w3.org/2000/svg" version="1.1">
 <metadata>
  <rdf:RDF xmlns:dc="http://purl.org/dc/elements/1.1/" xmlns:cc="http://creativecommons.org/ns#" xmlns:rdf="http://www.w3.org/1999/02/22-rdf-syntax-ns#">
   <cc:Work>
    <dc:type rdf:resource="http://purl.org/dc/dcmitype/StillImage"/>
    <dc:date>2026-07-20T20:00:33.987652</dc:date>
    <dc:format>image/svg+xml</dc:format>
    <dc:creator>
     <cc:Agent>
      <dc:title>Matplotlib v3.10.5, https://matplotlib.org/</dc:title>
     </cc:Agent>
    </dc:creator>
   </cc:Work>
  </rdf:RDF>
 </metadata>
 <defs>
  <style type="text/css">*{stroke-linejoin: round; stroke-linecap: butt}</style>
 </defs>
 <g id="figure_1">
  <g id="patch_1">
   <path d="M 0 230.016593 
L 452.820716 230.016593 
L 452.820716 0 
L 0 0 
z
" style="fill: #ffffff"/>
  </g>
  <g id="axes_1">
   <g id="patch_2">
    <path d="M 10.759086 214.709504 
L 417.186631 214.709504 
L 417.186631 7.2 
L 10.759086 7.2 
z
" style="fill: #ffffff"/>
   </g>
   <g id="matplotlib.axis_1"/>
   <g id="matplotlib.axis_2"/>
   <g id="line2d_1">
    <path d="M 393.112889 65.853691 
L 389.775562 61.543069 
L 386.891092 58.161551 
L 383.943229 54.980157 
L 380.711164 51.764347 
L 377.021936 48.39282 
L 371.866953 44.135844 
L 367.863251 41.142961 
L 362.943391 37.788764 
L 357.773422 34.601456 
L 352.129096 31.468428 
L 348.750275 29.748689 
L 343.738838 27.393379 
L 337.496336 24.758064 
L 332.164804 22.746309 
L 327.156634 21.040802 
L 319.104217 18.642345 
L 310.65453 16.542349 
L 303.302769 15.032757 
L 296.600803 13.895322 
L 288.190868 12.769164 
L 280.639258 12.026634 
L 271.058498 11.428705 
L 265.597221 11.251944 
L 256.474728 11.210492 
L 250.327812 11.355509 
L 242.370578 11.743057 
L 232.426959 12.534864 
L 223.648868 13.510006 
L 215.300668 14.67239 
L 208.343849 15.813552 
L 199.897598 17.407908 
L 191.845243 19.14035 
L 181.812337 21.589516 
L 176.684454 22.966658 
L 168.102836 25.46346 
L 159.006236 28.377575 
L 150.48469 31.364389 
L 140.057412 35.371273 
L 131.716501 38.869816 
L 122.073715 43.261477 
L 114.251342 47.118254 
L 110.293471 49.177469 
L 100.690596 54.501374 
L 93.315248 58.937594 
L 87.120892 62.927402 
L 82.667228 65.962754 
L 75.188463 71.418463 
L 69.546759 75.88012 
L 64.022813 80.596527 
L 61.122955 83.23508 
L 57.038064 87.177532 
L 52.289713 92.162566 
L 48.10322 97.019908 
L 44.926502 101.090311 
L 42.361952 104.699749 
L 39.871608 108.578318 
L 37.533866 112.691131 
L 36.109295 115.519824 
L 34.209349 119.88466 
L 32.760217 123.989516 
L 31.633795 128.157912 
L 30.964534 131.665226 
L 30.524056 135.664017 
L 30.439053 139.531162 
L 30.659894 142.982162 
L 31.0016 145.475694 
L 31.557455 148.200558 
L 32.150835 150.400296 
L 33.117418 153.242001 
L 34.654087 156.781745 
L 36.158461 159.600577 
L 37.916997 162.402131 
L 39.706764 164.881763 
L 41.9218 167.581596 
L 44.341184 170.186456 
L 46.300371 172.093085 
L 49.005047 174.489318 
L 53.069136 177.685199 
L 55.882125 179.670811 
L 59.392292 181.938678 
L 64.357095 184.819438 
L 69.630826 187.538698 
L 73.66436 189.422587 
L 79.050791 191.715105 
L 84.458593 193.796082 
L 86.303419 194.461109 
L 86.303419 194.461109 
" clip-path="url(#pf8423b06bd)" style="fill: none; stroke: #000000; stroke-width: 2; stroke-linecap: square"/>
   </g>
   <g id="patch_3">
    <path d="M 86.303419 194.461109 
Q 60.568123 175.802279 36.643146 158.455981 
" clip-path="url(#pf8423b06bd)" style="fill: none; stroke: #1e88e5; stroke-width: 2; stroke-linecap: round"/>
    <path d="M 41.804226 168.373807 
L 36.643146 158.455981 
L 47.674054 160.277813 
z
" clip-path="url(#pf8423b06bd)" style="fill: #1e88e5; stroke: #1e88e5; stroke-width: 2; stroke-linecap: round"/>
   </g>
   <g id="patch_4">
    <path d="M 34.832827 157.143448 
Q 37.422124 132.746014 39.775432 110.572162 
" clip-path="url(#pf8423b06bd)" style="fill: none; stroke: #1e88e5; stroke-width: 2; stroke-linecap: round"/>
    <path d="M 33.747983 119.988629 
L 39.775432 110.572162 
L 43.692137 121.044001 
z
" clip-path="url(#pf8423b06bd)" style="fill: #1e88e5; stroke: #1e88e5; stroke-width: 2; stroke-linecap: round"/>
   </g>
   <g id="patch_5">
    <path d="M 40.01142 108.348581 
Q 65.937916 84.098955 90.231344 61.376773 
" clip-path="url(#pf8423b06bd)" style="fill: none; stroke: #1e88e5; stroke-width: 2; stroke-linecap: round"/>
    <path d="M 79.51257 64.556063 
L 90.231344 61.376773 
L 86.343511 71.859366 
z
" clip-path="url(#pf8423b06bd)" style="fill: #1e88e5; stroke: #1e88e5; stroke-width: 2; stroke-linecap: round"/>
   </g>
   <g id="patch_6">
    <path d="M 91.864412 59.849328 
Q 176.737669 35.522372 259.461411 11.811525 
" clip-path="url(#pf8423b06bd)" style="fill: none; stroke: #d81b60; stroke-width: 2; stroke-linecap: round"/>
    <path d="M 248.470832 9.760386 
L 259.461411 11.811525 
L 251.226153 19.373305 
z
" clip-path="url(#pf8423b06bd)" style="fill: #d81b60; stroke: #d81b60; stroke-width: 2; stroke-linecap: round"/>
   </g>
   <g id="patch_7">
    <path d="M 261.610925 11.195416 
Q 300.814228 18.489966 337.819194 25.375472 
" clip-path="url(#pf8423b06bd)" style="fill: none; stroke: #1e88e5; stroke-width: 2; stroke-linecap: round"/>
    <path d="M 328.902585 18.630542 
L 337.819194 25.375472 
L 327.073284 28.461802 
z
" clip-path="url(#pf8423b06bd)" style="fill: #1e88e5; stroke: #1e88e5; stroke-width: 2; stroke-linecap: round"/>
   </g>
   <g id="patch_8">
    <path d="M 340.01753 25.784516 
Q 366.56521 45.819104 391.328039 64.506728 
" clip-path="url(#pf8423b06bd)" style="fill: none; stroke: #1e88e5; stroke-width: 2; stroke-linecap: round"/>
    <path d="M 386.357846 54.49188 
L 391.328039 64.506728 
L 380.334045 62.473974 
z
" clip-path="url(#pf8423b06bd)" style="fill: #1e88e5; stroke: #1e88e5; stroke-width: 2; stroke-linecap: round"/>
   </g>
   <g id="text_1">
    <!-- $P=\vec{r}_0$ -->
    <g transform="translate(60.932333 217.617374) scale(0.25 -0.25)">
     <defs>
      <path id="Cmmi10-50" d="M 313 0 
Q 250 0 250 84 
Q 253 100 262 139 
Q 272 178 289 201 
Q 306 225 331 225 
Q 722 225 878 269 
Q 959 297 997 441 
L 1875 3956 
Q 1888 4019 1888 4044 
Q 1888 4113 1813 4122 
Q 1691 4147 1350 4147 
Q 1288 4147 1288 4231 
Q 1291 4247 1300 4286 
Q 1309 4325 1326 4348 
Q 1344 4372 1369 4372 
L 3578 4372 
Q 3881 4372 4165 4264 
Q 4450 4156 4631 3934 
Q 4813 3713 4813 3397 
Q 4813 2991 4527 2672 
Q 4241 2353 3814 2175 
Q 3388 1997 2988 1997 
L 1947 1997 
L 1556 416 
Q 1544 353 1544 325 
Q 1544 300 1551 283 
Q 1559 266 1573 261 
Q 1588 256 1619 250 
Q 1741 225 2081 225 
Q 2144 225 2144 141 
Q 2122 50 2109 25 
Q 2097 0 2034 0 
L 313 0 
z
M 1978 2188 
L 2875 2188 
Q 3497 2188 3822 2522 
Q 3988 2688 4092 3000 
Q 4197 3313 4197 3566 
Q 4197 3881 3956 4014 
Q 3716 4147 3359 4147 
L 2747 4147 
Q 2572 4147 2515 4117 
Q 2459 4088 2413 3928 
L 1978 2188 
z
" transform="scale(0.015625)"/>
      <path id="Cmr10-3d" d="M 481 850 
Q 428 850 393 890 
Q 359 931 359 978 
Q 359 1031 393 1068 
Q 428 1106 481 1106 
L 4500 1106 
Q 4547 1106 4581 1068 
Q 4616 1031 4616 978 
Q 4616 931 4581 890 
Q 4547 850 4500 850 
L 481 850 
z
M 481 2094 
Q 428 2094 393 2131 
Q 359 2169 359 2222 
Q 359 2269 393 2309 
Q 428 2350 481 2350 
L 4500 2350 
Q 4547 2350 4581 2309 
Q 4616 2269 4616 2222 
Q 4616 2169 4581 2131 
Q 4547 2094 4500 2094 
L 481 2094 
z
" transform="scale(0.015625)"/>
      <path id="Cmmi10-7e" d="M 1281 3809 
Q 1231 3809 1198 3846 
Q 1166 3884 1166 3938 
Q 1166 3984 1198 4023 
Q 1231 4063 1281 4063 
L 3547 4063 
Q 3378 4291 3378 4441 
Q 3378 4497 3417 4533 
Q 3456 4569 3506 4569 
Q 3613 4569 3634 4469 
Q 3697 4194 3938 4044 
Q 4000 4003 4000 3938 
Q 4000 3859 3938 3828 
Q 3575 3647 3353 3347 
Q 3328 3303 3256 3303 
Q 3209 3303 3168 3340 
Q 3128 3378 3128 3431 
Q 3128 3547 3438 3809 
L 1281 3809 
z
" transform="scale(0.015625)"/>
      <path id="Cmmi10-72" d="M 494 109 
Q 494 147 500 166 
L 978 2075 
Q 1025 2253 1025 2388 
Q 1025 2663 838 2663 
Q 638 2663 541 2423 
Q 444 2184 353 1819 
Q 353 1800 334 1789 
Q 316 1778 300 1778 
L 225 1778 
Q 203 1778 187 1801 
Q 172 1825 172 1844 
Q 241 2122 305 2315 
Q 369 2509 505 2668 
Q 641 2828 844 2828 
Q 1066 2828 1233 2700 
Q 1400 2572 1441 2363 
Q 1603 2575 1811 2701 
Q 2019 2828 2266 2828 
Q 2469 2828 2623 2709 
Q 2778 2591 2778 2388 
Q 2778 2225 2676 2104 
Q 2575 1984 2406 1984 
Q 2303 1984 2233 2048 
Q 2163 2113 2163 2216 
Q 2163 2356 2266 2467 
Q 2369 2578 2503 2578 
Q 2400 2663 2253 2663 
Q 1978 2663 1775 2467 
Q 1572 2272 1409 1972 
L 953 141 
Q 931 53 854 -9 
Q 778 -72 684 -72 
Q 606 -72 550 -22 
Q 494 28 494 109 
z
" transform="scale(0.015625)"/>
      <path id="Cmr10-30" d="M 1600 -141 
Q 816 -141 533 504 
Q 250 1150 250 2041 
Q 250 2597 351 3087 
Q 453 3578 754 3920 
Q 1056 4263 1600 4263 
Q 2022 4263 2290 4056 
Q 2559 3850 2700 3523 
Q 2841 3197 2892 2823 
Q 2944 2450 2944 2041 
Q 2944 1491 2842 1011 
Q 2741 531 2444 195 
Q 2147 -141 1600 -141 
z
M 1600 25 
Q 1956 25 2131 390 
Q 2306 756 2347 1200 
Q 2388 1644 2388 2144 
Q 2388 2625 2347 3031 
Q 2306 3438 2132 3767 
Q 1959 4097 1600 4097 
Q 1238 4097 1063 3765 
Q 888 3434 847 3029 
Q 806 2625 806 2144 
Q 806 1788 823 1472 
Q 841 1156 916 820 
Q 991 484 1158 254 
Q 1325 25 1600 25 
z
" transform="scale(0.015625)"/>
     </defs>
     <use xlink:href="#Cmmi10-50" transform="translate(0 0.53125)"/>
     <use xlink:href="#Cmr10-3d" transform="translate(81.767578 0.53125)"/>
     <use xlink:href="#Cmmi10-7e" transform="translate(165.072266 5.609375)"/>
     <use xlink:href="#Cmmi10-72" transform="translate(177.011719 0.53125)"/>
     <use xlink:href="#Cmr10-30" transform="translate(226.593047 -16.475) scale(0.7)"/>
    </g>
   </g>
   <g id="text_2">
    <!-- $\vec{r}_1$ -->
    <g transform="translate(7.2 172.170799) scale(0.25 -0.25)">
     <defs>
      <path id="Cmr10-31" d="M 594 0 
L 594 225 
Q 1394 225 1394 428 
L 1394 3788 
Q 1063 3628 556 3628 
L 556 3853 
Q 1341 3853 1741 4263 
L 1831 4263 
Q 1853 4263 1873 4245 
Q 1894 4228 1894 4206 
L 1894 428 
Q 1894 225 2694 225 
L 2694 0 
L 594 0 
z
" transform="scale(0.015625)"/>
     </defs>
     <use xlink:href="#Cmmi10-7e" transform="translate(-11.939453 5.609375)"/>
     <use xlink:href="#Cmmi10-72" transform="translate(0 0.53125)"/>
     <use xlink:href="#Cmr10-31" transform="translate(49.581328 -16.475) scale(0.7)"/>
    </g>
   </g>
   <g id="text_3">
    <!-- $\vec{r}_2$ -->
    <g transform="translate(53.023161 115.247019) scale(0.25 -0.25)">
     <defs>
      <path id="Cmr10-32" d="M 319 0 
L 319 172 
Q 319 188 331 206 
L 1325 1306 
Q 1550 1550 1690 1715 
Q 1831 1881 1968 2097 
Q 2106 2313 2186 2536 
Q 2266 2759 2266 3009 
Q 2266 3272 2169 3511 
Q 2072 3750 1880 3894 
Q 1688 4038 1416 4038 
Q 1138 4038 916 3870 
Q 694 3703 603 3438 
Q 628 3444 672 3444 
Q 816 3444 917 3347 
Q 1019 3250 1019 3097 
Q 1019 2950 917 2848 
Q 816 2747 672 2747 
Q 522 2747 420 2851 
Q 319 2956 319 3097 
Q 319 3338 409 3548 
Q 500 3759 670 3923 
Q 841 4088 1055 4175 
Q 1269 4263 1509 4263 
Q 1875 4263 2190 4108 
Q 2506 3953 2690 3670 
Q 2875 3388 2875 3009 
Q 2875 2731 2753 2481 
Q 2631 2231 2440 2026 
Q 2250 1822 1953 1562 
Q 1656 1303 1563 1216 
L 838 519 
L 1453 519 
Q 1906 519 2211 526 
Q 2516 534 2534 550 
Q 2609 631 2688 1141 
L 2875 1141 
L 2694 0 
L 319 0 
z
" transform="scale(0.015625)"/>
     </defs>
     <use xlink:href="#Cmmi10-7e" transform="translate(-11.939453 5.609375)"/>
     <use xlink:href="#Cmmi10-72" transform="translate(0 0.53125)"/>
     <use xlink:href="#Cmr10-32" transform="translate(49.581328 -16.475) scale(0.7)"/>
    </g>
   </g>
   <g id="text_4">
    <!-- $\vec{r}_{n-2}$ -->
    <g transform="translate(235.110925 42.480594) scale(0.25 -0.25)">
     <defs>
      <path id="Cmmi10-6e" d="M 494 109 
Q 494 147 500 166 
L 978 2075 
Q 1025 2253 1025 2388 
Q 1025 2663 838 2663 
Q 638 2663 541 2423 
Q 444 2184 353 1819 
Q 353 1800 334 1789 
Q 316 1778 300 1778 
L 225 1778 
Q 203 1778 187 1801 
Q 172 1825 172 1844 
Q 241 2122 305 2315 
Q 369 2509 505 2668 
Q 641 2828 844 2828 
Q 1084 2828 1268 2676 
Q 1453 2525 1453 2291 
Q 1644 2541 1900 2684 
Q 2156 2828 2444 2828 
Q 2672 2828 2837 2750 
Q 3003 2672 3095 2514 
Q 3188 2356 3188 2138 
Q 3188 1875 3070 1503 
Q 2953 1131 2778 672 
Q 2688 463 2688 288 
Q 2688 97 2834 97 
Q 3084 97 3251 365 
Q 3419 634 3488 941 
Q 3500 978 3541 978 
L 3616 978 
Q 3641 978 3658 962 
Q 3675 947 3675 922 
Q 3675 916 3669 903 
Q 3581 541 3364 234 
Q 3147 -72 2822 -72 
Q 2597 -72 2437 83 
Q 2278 238 2278 459 
Q 2278 578 2328 709 
Q 2409 919 2514 1209 
Q 2619 1500 2686 1765 
Q 2753 2031 2753 2234 
Q 2753 2413 2679 2538 
Q 2606 2663 2431 2663 
Q 2197 2663 2000 2559 
Q 1803 2456 1656 2286 
Q 1509 2116 1388 1881 
L 953 141 
Q 931 53 854 -9 
Q 778 -72 684 -72 
Q 606 -72 550 -22 
Q 494 28 494 109 
z
" transform="scale(0.015625)"/>
      <path id="Cmsy10-a1" d="M 653 1472 
Q 600 1472 565 1512 
Q 531 1553 531 1600 
Q 531 1647 565 1687 
Q 600 1728 653 1728 
L 4325 1728 
Q 4375 1728 4408 1687 
Q 4441 1647 4441 1600 
Q 4441 1553 4408 1512 
Q 4375 1472 4325 1472 
L 653 1472 
z
" transform="scale(0.015625)"/>
     </defs>
     <use xlink:href="#Cmmi10-7e" transform="translate(-11.939453 5.609375)"/>
     <use xlink:href="#Cmmi10-72" transform="translate(0 0.53125)"/>
     <use xlink:href="#Cmmi10-6e" transform="translate(49.581328 -16.475) scale(0.7)"/>
     <use xlink:href="#Cmsy10-a1" transform="translate(103.87918 -16.475) scale(0.7)"/>
     <use xlink:href="#Cmr10-32" transform="translate(170.550078 -16.475) scale(0.7)"/>
    </g>
   </g>
   <g id="text_5">
    <!-- $\vec{r}_{n-1}$ -->
    <g transform="translate(313.51753 48.940781) scale(0.25 -0.25)">
     <use xlink:href="#Cmmi10-7e" transform="translate(-11.939453 5.609375)"/>
     <use xlink:href="#Cmmi10-72" transform="translate(0 0.53125)"/>
     <use xlink:href="#Cmmi10-6e" transform="translate(49.581328 -16.475) scale(0.7)"/>
     <use xlink:href="#Cmsy10-a1" transform="translate(103.87918 -16.475) scale(0.7)"/>
     <use xlink:href="#Cmr10-31" transform="translate(170.550078 -16.475) scale(0.7)"/>
    </g>
   </g>
   <g id="text_6">
    <!-- $Q=\vec{r}_{n}$ -->
    <g transform="translate(373.120716 89.0373) scale(0.25 -0.25)">
     <defs>
      <path id="Cmmi10-51" d="M 1947 -141 
Q 1466 -141 1094 79 
Q 722 300 520 692 
Q 319 1084 319 1563 
Q 319 2259 714 2950 
Q 1109 3641 1756 4077 
Q 2403 4513 3109 4513 
Q 3475 4513 3778 4381 
Q 4081 4250 4290 4017 
Q 4500 3784 4614 3471 
Q 4728 3159 4728 2791 
Q 4728 2366 4581 1936 
Q 4434 1506 4171 1136 
Q 3909 766 3559 484 
Q 3209 203 2809 38 
Q 2850 -256 2934 -425 
Q 3019 -594 3256 -594 
Q 3506 -594 3726 -412 
Q 3947 -231 4006 13 
Q 4019 72 4078 72 
Q 4147 72 4147 -13 
Q 4100 -219 4008 -430 
Q 3916 -641 3786 -823 
Q 3656 -1006 3478 -1123 
Q 3300 -1241 3084 -1241 
Q 2547 -1241 2547 -550 
Q 2547 -509 2562 -332 
Q 2578 -156 2578 -44 
Q 2269 -141 1947 -141 
z
M 1709 300 
Q 1709 44 1991 44 
Q 2275 44 2591 184 
L 2591 244 
Q 2591 503 2509 648 
Q 2428 794 2194 794 
Q 2078 794 1964 723 
Q 1850 653 1779 539 
Q 1709 425 1709 300 
z
M 1544 288 
Q 1544 456 1637 612 
Q 1731 769 1881 864 
Q 2031 959 2203 959 
Q 2481 959 2607 771 
Q 2734 584 2778 281 
Q 3188 525 3500 978 
Q 3813 1431 3977 1973 
Q 4141 2516 4141 3003 
Q 4141 3356 4023 3656 
Q 3906 3956 3664 4140 
Q 3422 4325 3066 4325 
Q 2722 4325 2403 4156 
Q 2084 3988 1813 3706 
Q 1550 3434 1342 3032 
Q 1134 2631 1021 2193 
Q 909 1756 909 1356 
Q 909 947 1068 612 
Q 1228 278 1569 128 
Q 1544 194 1544 288 
z
" transform="scale(0.015625)"/>
     </defs>
     <use xlink:href="#Cmmi10-51" transform="translate(0 0.53125)"/>
     <use xlink:href="#Cmr10-3d" transform="translate(96.5625 0.53125)"/>
     <use xlink:href="#Cmmi10-7e" transform="translate(179.867188 5.609375)"/>
     <use xlink:href="#Cmmi10-72" transform="translate(191.806641 0.53125)"/>
     <use xlink:href="#Cmmi10-6e" transform="translate(241.387969 -16.475) scale(0.7)"/>
    </g>
   </g>
   <g id="text_7">
    <!-- $\Delta \vec{r}_i=\vec{r}_{i+1}-\vec{r}_i$ -->
    <g style="fill: #d81b60" transform="translate(93.087847 80.664504) scale(0.25 -0.25)">
     <defs>
      <path id="Cmr10-a2" d="M 347 0 
Q 294 0 294 50 
Q 297 56 298 59 
Q 300 63 300 72 
L 2503 4513 
Q 2531 4581 2619 4581 
L 2706 4581 
Q 2794 4581 2822 4513 
L 5025 72 
Q 5028 66 5029 61 
Q 5031 56 5031 50 
Q 5031 0 4978 0 
L 347 0 
z
M 769 513 
L 4141 513 
L 2456 3909 
L 769 513 
z
" transform="scale(0.015625)"/>
      <path id="Cmmi10-69" d="M 500 459 
Q 500 578 550 709 
L 1069 2088 
Q 1153 2322 1153 2472 
Q 1153 2663 1013 2663 
Q 759 2663 595 2402 
Q 431 2141 353 1819 
Q 341 1778 300 1778 
L 225 1778 
Q 172 1778 172 1838 
L 172 1856 
Q 275 2238 487 2533 
Q 700 2828 1025 2828 
Q 1253 2828 1411 2678 
Q 1569 2528 1569 2297 
Q 1569 2178 1516 2047 
L 997 672 
Q 909 459 909 288 
Q 909 97 1056 97 
Q 1306 97 1473 364 
Q 1641 631 1709 941 
Q 1722 978 1759 978 
L 1838 978 
Q 1863 978 1878 961 
Q 1894 944 1894 922 
Q 1894 916 1888 903 
Q 1800 541 1583 234 
Q 1366 -72 1044 -72 
Q 819 -72 659 83 
Q 500 238 500 459 
z
M 1222 3878 
Q 1222 4013 1334 4122 
Q 1447 4231 1581 4231 
Q 1691 4231 1761 4164 
Q 1831 4097 1831 3994 
Q 1831 3850 1717 3742 
Q 1603 3634 1466 3634 
Q 1363 3634 1292 3704 
Q 1222 3775 1222 3878 
z
" transform="scale(0.015625)"/>
      <path id="Cmr10-2b" d="M 481 1472 
Q 428 1472 393 1512 
Q 359 1553 359 1600 
Q 359 1647 393 1687 
Q 428 1728 481 1728 
L 2363 1728 
L 2363 3616 
Q 2363 3666 2400 3698 
Q 2438 3731 2491 3731 
Q 2538 3731 2578 3698 
Q 2619 3666 2619 3616 
L 2619 1728 
L 4500 1728 
Q 4547 1728 4581 1687 
Q 4616 1647 4616 1600 
Q 4616 1553 4581 1512 
Q 4547 1472 4500 1472 
L 2619 1472 
L 2619 -416 
Q 2619 -466 2578 -498 
Q 2538 -531 2491 -531 
Q 2438 -531 2400 -498 
Q 2363 -466 2363 -416 
L 2363 1472 
L 481 1472 
z
" transform="scale(0.015625)"/>
     </defs>
     <use xlink:href="#Cmr10-a2" transform="translate(0 0.53125)"/>
     <use xlink:href="#Cmmi10-7e" transform="translate(71.361328 5.609375)"/>
     <use xlink:href="#Cmmi10-72" transform="translate(83.300781 0.53125)"/>
     <use xlink:href="#Cmmi10-69" transform="translate(132.882109 -16.475) scale(0.7)"/>
     <use xlink:href="#Cmr10-3d" transform="translate(180.914727 0.53125)"/>
     <use xlink:href="#Cmmi10-7e" transform="translate(264.219414 5.609375)"/>
     <use xlink:href="#Cmmi10-72" transform="translate(276.158867 0.53125)"/>
     <use xlink:href="#Cmmi10-69" transform="translate(325.740195 -16.475) scale(0.7)"/>
     <use xlink:href="#Cmr10-2b" transform="translate(362.127891 -16.475) scale(0.7)"/>
     <use xlink:href="#Cmr10-31" transform="translate(428.798789 -16.475) scale(0.7)"/>
     <use xlink:href="#Cmsy10-a1" transform="translate(487.734727 0.53125)"/>
     <use xlink:href="#Cmmi10-7e" transform="translate(571.039414 5.609375)"/>
     <use xlink:href="#Cmmi10-72" transform="translate(582.978867 0.53125)"/>
     <use xlink:href="#Cmmi10-69" transform="translate(632.560195 -16.475) scale(0.7)"/>
    </g>
   </g>
   <g id="PathCollection_1">
    <path d="M 86.303419 197.996643 
C 87.241054 197.996643 88.140412 197.624117 88.803419 196.961109 
C 89.466427 196.298102 89.838953 195.398744 89.838953 194.461109 
C 89.838953 193.523475 89.466427 192.624117 88.803419 191.961109 
C 88.140412 191.298102 87.241054 190.925576 86.303419 190.925576 
C 85.365785 190.925576 84.466427 191.298102 83.803419 191.961109 
C 83.140412 192.624117 82.767885 193.523475 82.767885 194.461109 
C 82.767885 195.398744 83.140412 196.298102 83.803419 196.961109 
C 84.466427 197.624117 85.365785 197.996643 86.303419 197.996643 
z
" clip-path="url(#pf8423b06bd)"/>
   </g>
   <g id="PathCollection_2">
    <path d="M 34.832827 160.678982 
C 35.770462 160.678982 36.669819 160.306455 37.332827 159.643448 
C 37.995835 158.98044 38.368361 158.081082 38.368361 157.143448 
C 38.368361 156.205813 37.995835 155.306455 37.332827 154.643448 
C 36.669819 153.98044 35.770462 153.607914 34.832827 153.607914 
C 33.895193 153.607914 32.995835 153.98044 32.332827 154.643448 
C 31.669819 155.306455 31.297293 156.205813 31.297293 157.143448 
C 31.297293 158.081082 31.669819 158.98044 32.332827 159.643448 
C 32.995835 160.306455 33.895193 160.678982 34.832827 160.678982 
z
" clip-path="url(#pf8423b06bd)"/>
   </g>
   <g id="PathCollection_3">
    <path d="M 40.01142 111.884115 
C 40.949055 111.884115 41.848412 111.511589 42.51142 110.848581 
C 43.174428 110.185573 43.546954 109.286216 43.546954 108.348581 
C 43.546954 107.410947 43.174428 106.511589 42.51142 105.848581 
C 41.848412 105.185573 40.949055 104.813047 40.01142 104.813047 
C 39.073786 104.813047 38.174428 105.185573 37.51142 105.848581 
C 36.848412 106.511589 36.475886 107.410947 36.475886 108.348581 
C 36.475886 109.286216 36.848412 110.185573 37.51142 110.848581 
C 38.174428 111.511589 39.073786 111.884115 40.01142 111.884115 
z
" clip-path="url(#pf8423b06bd)"/>
   </g>
   <g id="PathCollection_4">
    <path d="M 91.864412 63.384862 
C 92.802046 63.384862 93.701404 63.012336 94.364412 62.349328 
C 95.02742 61.68632 95.399946 60.786963 95.399946 59.849328 
C 95.399946 58.911694 95.02742 58.012336 94.364412 57.349328 
C 93.701404 56.68632 92.802046 56.313794 91.864412 56.313794 
C 90.926777 56.313794 90.02742 56.68632 89.364412 57.349328 
C 88.701404 58.012336 88.328878 58.911694 88.328878 59.849328 
C 88.328878 60.786963 88.701404 61.68632 89.364412 62.349328 
C 90.02742 63.012336 90.926777 63.384862 91.864412 63.384862 
z
" clip-path="url(#pf8423b06bd)"/>
   </g>
   <g id="PathCollection_5">
    <path d="M 261.610925 14.73095 
C 262.54856 14.73095 263.447918 14.358424 264.110925 13.695416 
C 264.773933 13.032408 265.146459 12.133051 265.146459 11.195416 
C 265.146459 10.257782 264.773933 9.358424 264.110925 8.695416 
C 263.447918 8.032408 262.54856 7.659882 261.610925 7.659882 
C 260.673291 7.659882 259.773933 8.032408 259.110925 8.695416 
C 258.447918 9.358424 258.075392 10.257782 258.075392 11.195416 
C 258.075392 12.133051 258.447918 13.032408 259.110925 13.695416 
C 259.773933 14.358424 260.673291 14.73095 261.610925 14.73095 
z
" clip-path="url(#pf8423b06bd)"/>
   </g>
   <g id="PathCollection_6">
    <path d="M 340.01753 29.32005 
C 340.955165 29.32005 341.854523 28.947524 342.51753 28.284516 
C 343.180538 27.621509 343.553064 26.722151 343.553064 25.784516 
C 343.553064 24.846882 343.180538 23.947524 342.51753 23.284516 
C 341.854523 22.621509 340.955165 22.248983 340.01753 22.248983 
C 339.079896 22.248983 338.180538 22.621509 337.51753 23.284516 
C 336.854523 23.947524 336.481996 24.846882 336.481996 25.784516 
C 336.481996 26.722151 336.854523 27.621509 337.51753 28.284516 
C 338.180538 28.947524 339.079896 29.32005 340.01753 29.32005 
z
" clip-path="url(#pf8423b06bd)"/>
   </g>
   <g id="PathCollection_7">
    <path d="M 393.112889 69.389225 
C 394.050524 69.389225 394.949882 69.016699 395.612889 68.353691 
C 396.275897 67.690684 396.648423 66.791326 396.648423 65.853691 
C 396.648423 64.916057 396.275897 64.016699 395.612889 63.353691 
C 394.949882 62.690684 394.050524 62.318157 393.112889 62.318157 
C 392.175255 62.318157 391.275897 62.690684 390.612889 63.353691 
C 389.949882 64.016699 389.577356 64.916057 389.577356 65.853691 
C 389.577356 66.791326 389.949882 67.690684 390.612889 68.353691 
C 391.275897 69.016699 392.175255 69.389225 393.112889 69.389225 
z
" clip-path="url(#pf8423b06bd)"/>
   </g>
  </g>
 </g>
 <defs>
  <clipPath id="pf8423b06bd">
   <rect x="10.759086" y="7.2" width="406.427545" height="207.509504"/>
  </clipPath>
 </defs>
</svg>
