<?xml version="1.0" encoding="utf-8" standalone="no"?>
<!DOCTYPE svg PUBLIC "-//W3C//DTD SVG 1.1//EN"
  "http://www.w3.org/Graphics/SVG/1.1/DTD/svg11.dtd">
<svg xmlns:xlink="http://www.w3.org/1999/xlink" width="337.590947pt" height="338.4pt" viewBox="0 0 337.590947 338.4" xmlns="http://www.w3.org/2000/svg" version="1.1">
 <metadata>
  <rdf:RDF xmlns:dc="http://purl.org/dc/elements/1.1/" xmlns:cc="http://creativecommons.org/ns#" xmlns:rdf="http://www.w3.org/1999/02/22-rdf-syntax-ns#">
   <cc:Work>
    <dc:type rdf:resource="http://purl.org/dc/dcmitype/StillImage"/>
    <dc:date>2025-08-06T19:10:25.197692</dc:date>
    <dc:format>image/svg+xml</dc:format>
    <dc:creator>
     <cc:Agent>
      <dc:title>Matplotlib v3.10.3, https://matplotlib.org/</dc:title>
     </cc:Agent>
    </dc:creator>
   </cc:Work>
  </rdf:RDF>
 </metadata>
 <defs>
  <style type="text/css">*{stroke-linejoin: round; stroke-linecap: butt}</style>
 </defs>
 <g id="figure_1">
  <g id="patch_1">
   <path d="M 0 338.4 
L 337.590947 338.4 
L 337.590947 0 
L 0 0 
z
" style="fill: #ffffff"/>
  </g>
  <g id="axes_1">
   <g id="patch_2">
    <path d="M 7.2 331.2 
L 330.390947 331.2 
L 330.390947 7.2 
L 7.2 7.2 
z
" style="fill: #ffffff"/>
   </g>
   <g id="line2d_1">
    <path d="M 220.588895 304.182527 
L 219.782555 297.300806 
L 218.837946 290.990971 
L 217.853525 285.497748 
L 216.265034 278.012106 
L 214.880841 272.389555 
L 212.827431 265.071079 
L 210.721264 258.461009 
L 208.280539 251.617162 
L 205.844081 245.444692 
L 203.108672 239.123945 
L 200.11917 232.802784 
L 196.745193 226.261886 
L 193.232319 219.998616 
L 189.951552 214.570215 
L 185.95903 208.428882 
L 181.696448 202.354192 
L 177.779736 197.151685 
L 173.127013 191.383443 
L 169.311301 186.949554 
L 165.567894 182.833439 
L 161.228207 178.325648 
L 155.624191 172.88495 
L 150.805606 168.518275 
L 145.135975 163.71582 
L 138.850902 158.779852 
L 132.719398 154.324766 
L 127.906765 151.059178 
L 121.568603 147.048276 
L 116.574369 144.106823 
L 111.037278 141.05905 
L 105.26964 138.111568 
L 99.365755 135.323439 
L 92.888039 132.518998 
L 86.13341 129.866474 
L 79.354601 127.472347 
L 72.650447 125.359088 
L 66.009553 123.507429 
L 60.67732 122.190249 
L 53.08061 120.568452 
L 47.277396 119.527329 
L 40.388643 118.509897 
L 34.368708 117.81235 
L 28.143678 117.276923 
L 28.143678 117.276923 
" clip-path="url(#p8f914bffc0)" style="fill: none; stroke-dasharray: 11.1,4.8; stroke-dashoffset: 0; stroke: #808080; stroke-width: 3"/>
   </g>
   <g id="line2d_2">
    <path d="M 324.175737 293.789175 
L 323.256389 285.691442 
L 322.061512 277.201449 
L 320.63285 268.740926 
L 318.567522 258.438281 
L 316.878163 251.114395 
L 314.52636 242.045312 
L 312.066902 233.582865 
L 309.701132 226.181818 
L 306.656319 217.479916 
L 303.699857 209.734148 
L 300.349161 201.627394 
L 297.1031 194.334313 
L 293.450721 186.678184 
L 289.88325 179.677373 
L 285.188286 171.074151 
L 280.708575 163.41875 
L 276.711087 156.98238 
L 272.819689 151.033561 
L 267.424379 143.245147 
L 263.087312 137.330903 
L 258.687662 131.615345 
L 253.140909 124.779596 
L 248.068382 118.857151 
L 241.979433 112.124929 
L 236.864993 106.761772 
L 230.856121 100.773444 
L 224.092869 94.406387 
L 219.194167 90.023872 
L 211.839703 83.780464 
L 204.905206 78.238848 
L 198.162631 73.150465 
L 191.994171 68.739148 
L 184.575024 63.724865 
L 176.510528 58.615673 
L 168.737386 54.00923 
L 160.988956 49.712459 
L 153.782076 45.968436 
L 147.978967 43.123713 
L 138.841976 38.940514 
L 130.731705 35.51951 
L 123.228916 32.590623 
L 115.185312 29.694533 
L 107.157672 27.048685 
L 98.744236 24.530788 
L 90.602237 22.336676 
L 82.128036 20.300808 
L 74.883034 18.756874 
L 65.218223 16.974509 
L 56.605866 15.649222 
L 48.25558 14.597761 
L 40.926173 13.86242 
L 35.507912 13.430769 
L 35.507912 13.430769 
" clip-path="url(#p8f914bffc0)" style="fill: none; stroke-dasharray: 11.1,4.8; stroke-dashoffset: 0; stroke: #808080; stroke-width: 3"/>
   </g>
   <g id="matplotlib.axis_1"/>
   <g id="matplotlib.axis_2"/>
   <g id="line2d_3">
    <path d="M 125.913653 149.763287 
L 13.415211 324.969231 
L 185.261546 207.402827 
" clip-path="url(#p8f914bffc0)" style="fill: none; stroke: #808080; stroke-width: 2; stroke-linecap: square"/>
   </g>
   <g id="patch_3">
    <path d="M 125.913653 149.763287 
L 128.702429 151.585611 
L 131.461692 153.45232 
L 134.190736 155.362937 
L 136.888862 157.316972 
L 139.55538 159.313926 
L 142.189606 161.353286 
L 144.790867 163.43453 
L 147.358496 165.557127 
L 149.891836 167.720533 
L 152.390239 169.924193 
L 154.853066 172.167544 
L 157.279685 174.450011 
L 159.669475 176.771011 
L 162.021825 179.129948 
L 164.336133 181.526219 
L 166.611806 183.959211 
L 168.848261 186.428301 
L 171.044927 188.932857 
L 173.20124 191.472237 
L 175.316648 194.045792 
L 177.390611 196.652862 
L 179.422597 199.292781 
L 181.412086 201.964872 
L 183.358568 204.668451 
L 185.261546 207.402827 
L 271.184714 148.619625 
L 268.330247 144.518061 
L 265.410523 140.462692 
L 262.42629 136.454555 
L 259.378311 132.494677 
L 256.267367 128.584072 
L 253.094254 124.72374 
L 249.859785 120.91467 
L 246.564787 117.157836 
L 243.210104 113.454202 
L 239.796595 109.804714 
L 236.325133 106.210307 
L 232.796608 102.6719 
L 229.211922 99.190401 
L 225.571993 95.7667 
L 221.877754 92.401674 
L 218.130149 89.096184 
L 214.330138 85.851075 
L 210.478695 82.66718 
L 206.576804 79.545313 
L 202.625464 76.486273 
L 198.625688 73.490843 
L 194.578499 70.559791 
L 190.484933 67.693865 
L 186.346039 64.893801 
L 182.162875 62.160315 
z
" clip-path="url(#p8f914bffc0)" style="fill: #808080; stroke: #000000; stroke-width: 3; stroke-linejoin: miter"/>
   </g>
   <g id="line2d_4">
    <path d="M 117.522154 324.969231 
L 117.40354 320.00103 
L 117.052867 315.095439 
L 116.483907 310.302964 
L 115.678894 305.465522 
L 114.617057 300.54707 
L 113.338841 295.754103 
L 111.948014 291.360567 
L 110.222498 286.672955 
L 108.380323 282.309144 
L 106.252303 277.857344 
L 103.923918 273.525772 
L 101.613735 269.658509 
L 99.338378 266.186029 
L 99.338378 266.186029 
" clip-path="url(#p8f914bffc0)" style="fill: none; stroke: #808080; stroke-width: 2; stroke-linecap: square"/>
   </g>
   <g id="patch_4">
    <path d="M 104.777648 275.057703 
Q 102.058013 270.621866 100.507143 268.092332 
" clip-path="url(#p8f914bffc0)" style="fill: none; stroke: #808080; stroke-width: 2; stroke-linecap: round"/>
    <path d="M 101.471392 279.231013 
L 100.507143 268.092332 
L 109.996638 274.004141 
z
" clip-path="url(#p8f914bffc0)" style="fill: #808080; stroke: #808080; stroke-width: 2; stroke-linecap: round"/>
   </g>
   <g id="line2d_5">
    <path d="M 65.468682 324.969231 
L 65.351236 321.474501 
L 65.041344 318.312935 
L 64.522144 315.087669 
L 63.772482 311.789357 
L 62.789164 308.483582 
L 61.644563 305.386241 
L 60.197896 302.145027 
L 58.567313 299.068428 
L 56.761618 296.148181 
L 54.659241 293.212438 
L 52.506858 290.597629 
L 50.174868 288.114225 
L 47.586474 285.702341 
L 44.928044 283.538503 
L 42.302161 281.666714 
L 41.539821 281.167745 
L 41.539821 281.167745 
" clip-path="url(#p8f914bffc0)" style="fill: none; stroke: #808080; stroke-width: 2; stroke-linecap: square"/>
   </g>
   <g id="patch_5">
    <path d="M 45.772167 284.194346 
Q 43.655994 282.681045 43.358674 282.468428 
" clip-path="url(#p8f914bffc0)" style="fill: none; stroke: #808080; stroke-width: 2; stroke-linecap: round"/>
    <path d="M 48.584413 292.352336 
L 43.358674 282.468428 
L 54.401244 284.218181 
z
" clip-path="url(#p8f914bffc0)" style="fill: #808080; stroke: #808080; stroke-width: 2; stroke-linecap: round"/>
   </g>
   <g id="line2d_6">
    <path d="M 82.153745 277.942669 
L 79.653695 274.482136 
L 77.014477 271.195474 
L 74.097727 267.924373 
L 71.105687 264.900166 
L 67.939149 262.011914 
L 64.62324 259.286499 
L 61.0874 256.676874 
L 58.414588 254.886853 
L 58.414588 254.886853 
" clip-path="url(#p8f914bffc0)" style="fill: none; stroke: #000000; stroke-width: 2; stroke-linecap: square"/>
   </g>
   <g id="patch_6">
    <path d="M 13.415211 331.2 
L 13.415211 7.2 
" style="fill: none; stroke: #000000; stroke-width: 0.8; stroke-linejoin: miter; stroke-linecap: square"/>
   </g>
   <g id="patch_7">
    <path d="M 7.2 324.969231 
L 330.390947 324.969231 
" style="fill: none; stroke: #000000; stroke-width: 0.8; stroke-linejoin: miter; stroke-linecap: square"/>
   </g>
   <g id="text_1">
    <!-- $\theta_0$ -->
    <g style="fill: #808080" transform="translate(119.032848 309.666592) scale(0.2 -0.2)">
     <defs>
      <path id="Cmmi10-b5" d="M 1031 -72 
Q 741 -72 566 140 
Q 391 353 323 653 
Q 256 953 256 1247 
L 256 1253 
Q 256 1572 317 1915 
Q 378 2259 493 2601 
Q 609 2944 744 3213 
Q 838 3400 986 3631 
Q 1134 3863 1317 4064 
Q 1500 4266 1711 4389 
Q 1922 4513 2138 4513 
L 2144 4513 
Q 2375 4513 2529 4384 
Q 2684 4256 2770 4056 
Q 2856 3856 2890 3628 
Q 2925 3400 2925 3194 
Q 2925 2709 2794 2204 
Q 2663 1700 2431 1228 
Q 2344 1050 2189 809 
Q 2034 569 1861 378 
Q 1688 188 1472 58 
Q 1256 -72 1038 -72 
L 1031 -72 
z
M 1044 97 
Q 1256 97 1451 323 
Q 1647 550 1794 873 
Q 1941 1197 2052 1536 
Q 2163 1875 2216 2113 
L 909 2113 
Q 809 1709 753 1417 
Q 697 1125 697 844 
Q 697 97 1044 97 
z
M 959 2338 
L 2272 2338 
Q 2341 2619 2381 2808 
Q 2422 2997 2450 3206 
Q 2478 3416 2478 3597 
Q 2478 4347 2138 4347 
Q 1731 4347 1436 3692 
Q 1141 3038 959 2338 
z
" transform="scale(0.015625)"/>
      <path id="Cmr10-30" d="M 1600 -141 
Q 816 -141 533 504 
Q 250 1150 250 2041 
Q 250 2597 351 3087 
Q 453 3578 754 3920 
Q 1056 4263 1600 4263 
Q 2022 4263 2290 4056 
Q 2559 3850 2700 3523 
Q 2841 3197 2892 2823 
Q 2944 2450 2944 2041 
Q 2944 1491 2842 1011 
Q 2741 531 2444 195 
Q 2147 -141 1600 -141 
z
M 1600 25 
Q 1956 25 2131 390 
Q 2306 756 2347 1200 
Q 2388 1644 2388 2144 
Q 2388 2625 2347 3031 
Q 2306 3438 2132 3767 
Q 1959 4097 1600 4097 
Q 1238 4097 1063 3765 
Q 888 3434 847 3029 
Q 806 2625 806 2144 
Q 806 1788 823 1472 
Q 841 1156 916 820 
Q 991 484 1158 254 
Q 1325 25 1600 25 
z
" transform="scale(0.015625)"/>
     </defs>
     <use xlink:href="#Cmmi10-b5" transform="translate(0 0.484375)"/>
     <use xlink:href="#Cmr10-30" transform="translate(46.923828 -16.521875) scale(0.7)"/>
    </g>
   </g>
   <g id="text_2">
    <!-- $\theta_1$ -->
    <g style="fill: #808080" transform="translate(66.979376 309.666592) scale(0.2 -0.2)">
     <defs>
      <path id="Cmr10-31" d="M 594 0 
L 594 225 
Q 1394 225 1394 428 
L 1394 3788 
Q 1063 3628 556 3628 
L 556 3853 
Q 1341 3853 1741 4263 
L 1831 4263 
Q 1853 4263 1873 4245 
Q 1894 4228 1894 4206 
L 1894 428 
Q 1894 225 2694 225 
L 2694 0 
L 594 0 
z
" transform="scale(0.015625)"/>
     </defs>
     <use xlink:href="#Cmmi10-b5" transform="translate(0 0.484375)"/>
     <use xlink:href="#Cmr10-31" transform="translate(46.923828 -16.521875) scale(0.7)"/>
    </g>
   </g>
   <g id="text_3">
    <!-- $\Delta \theta$ -->
    <g transform="translate(73.190071 257.613121) scale(0.2 -0.2)">
     <defs>
      <path id="Cmr10-a2" d="M 347 0 
Q 294 0 294 50 
Q 297 56 298 59 
Q 300 63 300 72 
L 2503 4513 
Q 2531 4581 2619 4581 
L 2706 4581 
Q 2794 4581 2822 4513 
L 5025 72 
Q 5028 66 5029 61 
Q 5031 56 5031 50 
Q 5031 0 4978 0 
L 347 0 
z
M 769 513 
L 4141 513 
L 2456 3909 
L 769 513 
z
" transform="scale(0.015625)"/>
     </defs>
     <use xlink:href="#Cmr10-a2" transform="translate(0 0.421875)"/>
     <use xlink:href="#Cmmi10-b5" transform="translate(83.300781 0.421875)"/>
    </g>
   </g>
   <g id="text_4">
    <!-- $R_0$ -->
    <g style="fill: #808080" transform="translate(173.461546 233.742966) scale(0.2 -0.2)">
     <defs>
      <path id="Cmmi10-52" d="M 313 0 
Q 250 0 250 84 
Q 253 100 262 139 
Q 272 178 289 201 
Q 306 225 331 225 
Q 722 225 878 269 
Q 959 297 997 441 
L 1875 3956 
Q 1888 4019 1888 4044 
Q 1888 4113 1813 4122 
Q 1691 4147 1350 4147 
Q 1288 4147 1288 4231 
Q 1291 4247 1300 4286 
Q 1309 4325 1326 4348 
Q 1344 4372 1369 4372 
L 3309 4372 
Q 3541 4372 3791 4319 
Q 4041 4266 4250 4152 
Q 4459 4038 4593 3848 
Q 4728 3659 4728 3406 
Q 4728 3084 4515 2831 
Q 4303 2578 3978 2408 
Q 3653 2238 3347 2169 
Q 3597 2078 3756 1879 
Q 3916 1681 3916 1422 
Q 3916 1388 3914 1370 
Q 3913 1353 3909 1331 
L 3859 763 
Q 3853 638 3847 550 
Q 3841 463 3841 409 
Q 3841 234 3892 129 
Q 3944 25 4097 25 
Q 4297 25 4448 211 
Q 4600 397 4647 616 
Q 4675 672 4709 672 
L 4769 672 
Q 4831 672 4831 588 
Q 4784 403 4682 237 
Q 4581 72 4426 -34 
Q 4272 -141 4091 -141 
Q 3716 -141 3452 26 
Q 3188 194 3188 550 
Q 3188 684 3213 788 
L 3353 1356 
Q 3378 1434 3378 1538 
Q 3378 1803 3198 1954 
Q 3019 2106 2747 2106 
L 1959 2106 
L 1538 416 
Q 1522 363 1522 325 
Q 1522 259 1600 250 
Q 1722 225 2059 225 
Q 2125 225 2125 141 
Q 2103 50 2090 25 
Q 2078 0 2016 0 
L 313 0 
z
M 1997 2272 
L 2706 2272 
Q 3403 2272 3756 2625 
Q 3919 2788 4014 3039 
Q 4109 3291 4109 3541 
Q 4109 3778 3970 3912 
Q 3831 4047 3626 4097 
Q 3422 4147 3175 4147 
L 2747 4147 
Q 2572 4147 2515 4117 
Q 2459 4088 2413 3928 
L 1997 2272 
z
" transform="scale(0.015625)"/>
     </defs>
     <use xlink:href="#Cmmi10-52" transform="translate(0 0.6875)"/>
     <use xlink:href="#Cmr10-30" transform="translate(75.878906 -16.31875) scale(0.7)"/>
    </g>
   </g>
   <g id="text_5">
    <!-- $R_1$ -->
    <g style="fill: #808080" transform="translate(259.384714 174.959764) scale(0.2 -0.2)">
     <use xlink:href="#Cmmi10-52" transform="translate(0 0.6875)"/>
     <use xlink:href="#Cmr10-31" transform="translate(75.878906 -16.31875) scale(0.7)"/>
    </g>
   </g>
   <g id="text_6">
    <!-- $\Delta r$ -->
    <g transform="translate(120.316875 101.069857) scale(0.2 -0.2)">
     <defs>
      <path id="Cmmi10-72" d="M 494 109 
Q 494 147 500 166 
L 978 2075 
Q 1025 2253 1025 2388 
Q 1025 2663 838 2663 
Q 638 2663 541 2423 
Q 444 2184 353 1819 
Q 353 1800 334 1789 
Q 316 1778 300 1778 
L 225 1778 
Q 203 1778 187 1801 
Q 172 1825 172 1844 
Q 241 2122 305 2315 
Q 369 2509 505 2668 
Q 641 2828 844 2828 
Q 1066 2828 1233 2700 
Q 1400 2572 1441 2363 
Q 1603 2575 1811 2701 
Q 2019 2828 2266 2828 
Q 2469 2828 2623 2709 
Q 2778 2591 2778 2388 
Q 2778 2225 2676 2104 
Q 2575 1984 2406 1984 
Q 2303 1984 2233 2048 
Q 2163 2113 2163 2216 
Q 2163 2356 2266 2467 
Q 2369 2578 2503 2578 
Q 2400 2663 2253 2663 
Q 1978 2663 1775 2467 
Q 1572 2272 1409 1972 
L 953 141 
Q 931 53 854 -9 
Q 778 -72 684 -72 
Q 606 -72 550 -22 
Q 494 28 494 109 
z
" transform="scale(0.015625)"/>
     </defs>
     <use xlink:href="#Cmr10-a2" transform="translate(0 0.421875)"/>
     <use xlink:href="#Cmmi10-72" transform="translate(83.300781 0.421875)"/>
    </g>
   </g>
   <g id="text_7">
    <!-- $s_0$ -->
    <g transform="translate(139.168528 191.535176) scale(0.2 -0.2)">
     <defs>
      <path id="Cmmi10-73" d="M 556 391 
Q 728 97 1247 97 
Q 1472 97 1675 173 
Q 1878 250 2011 403 
Q 2144 556 2144 775 
Q 2144 941 2025 1047 
Q 1906 1153 1734 1191 
L 1388 1259 
Q 1150 1319 997 1481 
Q 844 1644 844 1875 
Q 844 2159 998 2378 
Q 1153 2597 1406 2712 
Q 1659 2828 1931 2828 
Q 2222 2828 2451 2689 
Q 2681 2550 2681 2278 
Q 2681 2131 2598 2018 
Q 2516 1906 2369 1906 
Q 2284 1906 2223 1961 
Q 2163 2016 2163 2100 
Q 2163 2175 2205 2245 
Q 2247 2316 2317 2358 
Q 2388 2400 2463 2400 
Q 2406 2538 2251 2600 
Q 2097 2663 1919 2663 
Q 1756 2663 1593 2597 
Q 1431 2531 1332 2404 
Q 1234 2278 1234 2106 
Q 1234 1991 1315 1903 
Q 1397 1816 1516 1778 
L 1888 1703 
Q 2066 1666 2214 1570 
Q 2363 1475 2448 1329 
Q 2534 1184 2534 997 
Q 2534 759 2401 528 
Q 2269 297 2075 159 
Q 1734 -72 1241 -72 
Q 900 -72 615 84 
Q 331 241 331 550 
Q 331 725 432 854 
Q 534 984 709 984 
Q 813 984 883 921 
Q 953 859 953 756 
Q 953 609 843 500 
Q 734 391 588 391 
L 556 391 
z
" transform="scale(0.015625)"/>
     </defs>
     <use xlink:href="#Cmmi10-73" transform="translate(0 0.8125)"/>
     <use xlink:href="#Cmr10-30" transform="translate(46.777344 -16.19375) scale(0.7)"/>
    </g>
   </g>
   <g id="text_8">
    <!-- $s_1$ -->
    <g transform="translate(232.521922 96.032037) scale(0.2 -0.2)">
     <use xlink:href="#Cmmi10-73" transform="translate(0 0.8125)"/>
     <use xlink:href="#Cmr10-31" transform="translate(46.777344 -16.19375) scale(0.7)"/>
    </g>
   </g>
   <g id="text_9">
    <!-- $\Delta A$ -->
    <g transform="translate(164.459531 155.573988) scale(0.25 -0.25)">
     <defs>
      <path id="Cmmi10-41" d="M 288 0 
Q 225 0 225 84 
Q 250 225 306 225 
Q 566 225 755 328 
Q 944 431 1081 647 
Q 1094 659 1094 659 
L 3378 4513 
Q 3428 4581 3500 4581 
L 3584 4581 
Q 3603 4581 3622 4573 
Q 3641 4566 3655 4548 
Q 3669 4531 3669 4513 
L 4056 378 
Q 4056 350 4084 294 
Q 4147 225 4563 225 
Q 4628 225 4628 141 
Q 4606 56 4592 28 
Q 4578 0 4519 0 
L 2919 0 
Q 2859 0 2859 84 
Q 2894 225 2944 225 
Q 3450 225 3481 397 
L 3384 1453 
L 1806 1453 
L 1294 594 
Q 1247 525 1247 434 
Q 1247 322 1355 273 
Q 1463 225 1594 225 
Q 1656 225 1656 141 
Q 1634 50 1621 25 
Q 1609 0 1550 0 
L 288 0 
z
M 1931 1678 
L 3359 1678 
L 3169 3750 
L 1931 1678 
z
" transform="scale(0.015625)"/>
     </defs>
     <use xlink:href="#Cmr10-a2" transform="translate(0 0.421875)"/>
     <use xlink:href="#Cmmi10-41" transform="translate(83.300781 0.421875)"/>
    </g>
   </g>
  </g>
 </g>
 <defs>
  <clipPath id="p8f914bffc0">
   <rect x="7.2" y="7.2" width="323.190947" height="324"/>
  </clipPath>
 </defs>
</svg>
