<?xml version="1.0" encoding="utf-8" standalone="no"?>
<!DOCTYPE svg PUBLIC "-//W3C//DTD SVG 1.1//EN"
  "http://www.w3.org/Graphics/SVG/1.1/DTD/svg11.dtd">
<svg xmlns:xlink="http://www.w3.org/1999/xlink" width="392.666643pt" height="338.4pt" viewBox="0 0 392.666643 338.4" xmlns="http://www.w3.org/2000/svg" version="1.1">
 <metadata>
  <rdf:RDF xmlns:dc="http://purl.org/dc/elements/1.1/" xmlns:cc="http://creativecommons.org/ns#" xmlns:rdf="http://www.w3.org/1999/02/22-rdf-syntax-ns#">
   <cc:Work>
    <dc:type rdf:resource="http://purl.org/dc/dcmitype/StillImage"/>
    <dc:date>2025-09-10T20:42:40.748662</dc:date>
    <dc:format>image/svg+xml</dc:format>
    <dc:creator>
     <cc:Agent>
      <dc:title>Matplotlib v3.10.5, https://matplotlib.org/</dc:title>
     </cc:Agent>
    </dc:creator>
   </cc:Work>
  </rdf:RDF>
 </metadata>
 <defs>
  <style type="text/css">*{stroke-linejoin: round; stroke-linecap: butt}</style>
 </defs>
 <g id="figure_1">
  <g id="patch_1">
   <path d="M 0 338.4 
L 392.666643 338.4 
L 392.666643 0 
L 0 0 
z
" style="fill: #ffffff"/>
  </g>
  <g id="axes_1">
   <g id="patch_2">
    <path d="M 7.2 331.2 
L 385.466643 331.2 
L 385.466643 7.2 
L 7.2 7.2 
z
" style="fill: #ffffff"/>
   </g>
   <g id="PathCollection_1">
    <path d="M 378.192284 246.767627 
C 379.129919 246.767627 380.029276 246.395101 380.692284 245.732093 
C 381.355292 245.069085 381.727818 244.169728 381.727818 243.232093 
C 381.727818 242.294459 381.355292 241.395101 380.692284 240.732093 
C 380.029276 240.069085 379.129919 239.696559 378.192284 239.696559 
C 377.25465 239.696559 376.355292 240.069085 375.692284 240.732093 
C 375.029276 241.395101 374.65675 242.294459 374.65675 243.232093 
C 374.65675 244.169728 375.029276 245.069085 375.692284 245.732093 
C 376.355292 246.395101 377.25465 246.767627 378.192284 246.767627 
z
" clip-path="url(#p3470015110)"/>
   </g>
   <g id="PathCollection_2">
    <path d="M 137.725443 100.660228 
C 138.663078 100.660228 139.562436 100.287702 140.225443 99.624694 
C 140.888451 98.961686 141.260977 98.062329 141.260977 97.124694 
C 141.260977 96.18706 140.888451 95.287702 140.225443 94.624694 
C 139.562436 93.961686 138.663078 93.58916 137.725443 93.58916 
C 136.787809 93.58916 135.888451 93.961686 135.225443 94.624694 
C 134.562436 95.287702 134.189909 96.18706 134.189909 97.124694 
C 134.189909 98.062329 134.562436 98.961686 135.225443 99.624694 
C 135.888451 100.287702 136.787809 100.660228 137.725443 100.660228 
z
" clip-path="url(#p3470015110)"/>
   </g>
   <g id="matplotlib.axis_1"/>
   <g id="matplotlib.axis_2"/>
   <g id="line2d_1">
    <path d="M 378.192284 243.232093 
L 339.977155 196.007988 
L 318.908206 170.206462 
L 308.803081 158.022917 
L 292.550117 138.813251 
L 280.551776 125.02058 
L 271.119277 114.45901 
L 259.401412 101.739518 
L 248.555707 90.417966 
L 240.273845 82.100736 
L 231.478862 73.611367 
L 223.989285 66.684764 
L 218.622215 61.904877 
L 211.783242 56.050742 
L 204.120182 49.826297 
L 197.253225 44.569671 
L 189.318911 38.900521 
L 183.161713 34.819334 
L 174.829539 29.769871 
L 171.052581 27.670307 
L 162.540464 23.399222 
L 157.497824 21.186235 
L 154.466703 19.975468 
L 147.125523 17.432959 
L 141.505815 15.878896 
L 138.243798 15.141139 
L 133.603723 14.30906 
L 127.908868 13.65299 
L 123.214306 13.430769 
L 118.530496 13.511677 
L 116.178514 13.671259 
L 110.818417 14.346227 
L 107.45478 15.000427 
L 101.328065 16.677084 
L 98.666984 17.610552 
L 94.332969 19.412522 
L 89.517044 21.847014 
L 84.808705 24.697186 
L 80.610055 27.659185 
L 76.165467 31.258959 
L 71.704677 35.39002 
L 69.686943 37.44102 
L 67.028766 40.327198 
L 62.84965 45.315507 
L 59.096102 50.304591 
L 55.243887 55.976035 
L 52.539067 60.324044 
L 48.832708 66.82424 
L 46.461385 71.344631 
L 43.719973 76.960854 
L 40.941397 83.127156 
L 38.646108 88.624016 
L 36.207262 94.915972 
L 33.245637 103.277035 
L 31.243061 109.452978 
L 28.497594 118.745929 
L 26.367752 126.756779 
L 24.038881 136.543476 
L 22.050006 146.02075 
L 20.466641 154.575497 
L 18.882994 164.413381 
L 17.542656 174.267016 
L 16.227063 186.354154 
L 15.488906 195.247012 
L 14.884654 205.44675 
L 14.586333 213.844174 
L 14.474359 223.134099 
L 14.650136 233.954579 
L 15.047827 242.619271 
L 15.646388 250.712169 
L 16.588133 259.614723 
L 17.714271 267.557172 
L 18.639263 272.862688 
L 20.359292 280.936812 
L 21.612747 285.811197 
L 23.414364 291.77157 
L 25.452519 297.402878 
L 27.231971 301.578714 
L 28.725549 304.651328 
L 31.451561 309.423488 
L 32.503027 311.016461 
L 34.003402 313.081337 
L 36.354268 315.876436 
L 37.481538 317.045157 
L 40.267357 319.510372 
L 42.874463 321.329855 
L 46.164345 323.038708 
L 49.232971 324.112064 
L 50.897727 324.504856 
L 54.015055 324.913596 
L 55.6247 324.969231 
L 59.185962 324.747096 
L 62.220179 324.211244 
L 64.217136 323.697789 
L 67.967529 322.413622 
L 71.533476 320.833613 
L 72.639333 320.277071 
L 72.639333 320.277071 
" clip-path="url(#p3470015110)" style="fill: none; stroke: #000000; stroke-linecap: square"/>
   </g>
   <g id="line2d_2">
    <path d="M 72.639333 320.277071 
L 77.030115 316.254513 
L 81.868389 311.512218 
L 86.3125 306.814961 
L 89.883863 302.755736 
L 94.163891 297.484179 
L 97.065018 293.604855 
L 100.338846 288.859983 
L 103.552466 283.730946 
L 106.407568 278.671386 
L 108.592369 274.387774 
L 110.630119 269.977515 
L 112.530172 265.398215 
L 114.492829 260.032449 
L 116.146303 254.813519 
L 117.685697 249.112943 
L 118.719164 244.612361 
L 119.877724 238.559606 
L 120.795267 232.515192 
L 121.532122 226.162578 
L 122.130936 218.879573 
L 122.509674 211.690317 
L 122.751979 203.040588 
L 122.847285 190.380283 
L 122.955069 169.185146 
L 123.217706 160.352025 
L 123.664308 152.475231 
L 124.273797 145.54294 
L 125.150896 138.462646 
L 126.090547 132.671018 
L 127.04471 127.847393 
L 128.376501 122.213825 
L 130.03631 116.344286 
L 131.776228 111.095784 
L 133.909843 105.520912 
L 135.817293 101.116882 
L 137.725443 97.124694 
L 137.725443 97.124694 
" clip-path="url(#p3470015110)" style="fill: none; stroke: #000000; stroke-linecap: square"/>
   </g>
   <g id="patch_3">
    <path d="M 100.087077 17.096446 
Q 99.984685 17.13238 101.9922 16.427847 
" clip-path="url(#p3470015110)" style="fill: none; stroke: #000000; stroke-width: 2; stroke-linecap: round"/>
    <path d="M 113.083728 17.834269 
L 101.9922 16.427847 
L 109.772254 8.398478 
z
" clip-path="url(#p3470015110)" style="stroke: #000000; stroke-width: 2; stroke-linecap: round"/>
   </g>
   <g id="patch_4">
    <path d="M 122.848618 186.385645 
Q 122.848626 185.93934 122.848596 187.729103 
" clip-path="url(#p3470015110)" style="fill: none; stroke: #000000; stroke-width: 2; stroke-linecap: round"/>
    <path d="M 117.848429 197.72902 
L 122.848596 187.729103 
L 127.848429 197.729187 
z
" clip-path="url(#p3470015110)" style="stroke: #000000; stroke-width: 2; stroke-linecap: round"/>
   </g>
   <g id="text_1">
    <g clip-path="url(#p3470015110)">
     <!-- $P$ -->
     <g transform="translate(361.141189 272.445768) scale(0.25 -0.25)">
      <defs>
       <path id="Cmmi10-50" d="M 313 0 
Q 250 0 250 84 
Q 253 100 262 139 
Q 272 178 289 201 
Q 306 225 331 225 
Q 722 225 878 269 
Q 959 297 997 441 
L 1875 3956 
Q 1888 4019 1888 4044 
Q 1888 4113 1813 4122 
Q 1691 4147 1350 4147 
Q 1288 4147 1288 4231 
Q 1291 4247 1300 4286 
Q 1309 4325 1326 4348 
Q 1344 4372 1369 4372 
L 3578 4372 
Q 3881 4372 4165 4264 
Q 4450 4156 4631 3934 
Q 4813 3713 4813 3397 
Q 4813 2991 4527 2672 
Q 4241 2353 3814 2175 
Q 3388 1997 2988 1997 
L 1947 1997 
L 1556 416 
Q 1544 353 1544 325 
Q 1544 300 1551 283 
Q 1559 266 1573 261 
Q 1588 256 1619 250 
Q 1741 225 2081 225 
Q 2144 225 2144 141 
Q 2122 50 2109 25 
Q 2097 0 2034 0 
L 313 0 
z
M 1978 2188 
L 2875 2188 
Q 3497 2188 3822 2522 
Q 3988 2688 4092 3000 
Q 4197 3313 4197 3566 
Q 4197 3881 3956 4014 
Q 3716 4147 3359 4147 
L 2747 4147 
Q 2572 4147 2515 4117 
Q 2459 4088 2413 3928 
L 1978 2188 
z
" transform="scale(0.015625)"/>
      </defs>
      <use xlink:href="#Cmmi10-50" transform="translate(0 0.6875)"/>
     </g>
    </g>
   </g>
   <g id="text_2">
    <g clip-path="url(#p3470015110)">
     <!-- $R$ -->
     <g transform="translate(150.540681 81.707894) scale(0.25 -0.25)">
      <defs>
       <path id="Cmmi10-52" d="M 313 0 
Q 250 0 250 84 
Q 253 100 262 139 
Q 272 178 289 201 
Q 306 225 331 225 
Q 722 225 878 269 
Q 959 297 997 441 
L 1875 3956 
Q 1888 4019 1888 4044 
Q 1888 4113 1813 4122 
Q 1691 4147 1350 4147 
Q 1288 4147 1288 4231 
Q 1291 4247 1300 4286 
Q 1309 4325 1326 4348 
Q 1344 4372 1369 4372 
L 3309 4372 
Q 3541 4372 3791 4319 
Q 4041 4266 4250 4152 
Q 4459 4038 4593 3848 
Q 4728 3659 4728 3406 
Q 4728 3084 4515 2831 
Q 4303 2578 3978 2408 
Q 3653 2238 3347 2169 
Q 3597 2078 3756 1879 
Q 3916 1681 3916 1422 
Q 3916 1388 3914 1370 
Q 3913 1353 3909 1331 
L 3859 763 
Q 3853 638 3847 550 
Q 3841 463 3841 409 
Q 3841 234 3892 129 
Q 3944 25 4097 25 
Q 4297 25 4448 211 
Q 4600 397 4647 616 
Q 4675 672 4709 672 
L 4769 672 
Q 4831 672 4831 588 
Q 4784 403 4682 237 
Q 4581 72 4426 -34 
Q 4272 -141 4091 -141 
Q 3716 -141 3452 26 
Q 3188 194 3188 550 
Q 3188 684 3213 788 
L 3353 1356 
Q 3378 1434 3378 1538 
Q 3378 1803 3198 1954 
Q 3019 2106 2747 2106 
L 1959 2106 
L 1538 416 
Q 1522 363 1522 325 
Q 1522 259 1600 250 
Q 1722 225 2059 225 
Q 2125 225 2125 141 
Q 2103 50 2090 25 
Q 2078 0 2016 0 
L 313 0 
z
M 1997 2272 
L 2706 2272 
Q 3403 2272 3756 2625 
Q 3919 2788 4014 3039 
Q 4109 3291 4109 3541 
Q 4109 3778 3970 3912 
Q 3831 4047 3626 4097 
Q 3422 4147 3175 4147 
L 2747 4147 
Q 2572 4147 2515 4117 
Q 2459 4088 2413 3928 
L 1997 2272 
z
" transform="scale(0.015625)"/>
      </defs>
      <use xlink:href="#Cmmi10-52" transform="translate(0 0.6875)"/>
     </g>
    </g>
   </g>
  </g>
 </g>
 <defs>
  <clipPath id="p3470015110">
   <rect x="7.2" y="7.2" width="378.266643" height="324"/>
  </clipPath>
 </defs>
</svg>
